<svg xmlns="http://www.w3.org/2000/svg" xmlns:xlink="http://www.w3.org/1999/xlink" width="1920" zoomAndPan="magnify" viewBox="0 0 1440 809.999993" height="1080" preserveAspectRatio="xMidYMid meet" version="1.0"><defs><filter x="0%" y="0%" width="100%" height="100%" id="7258c48d7f"><feColorMatrix values="0 0 0 0 1 0 0 0 0 1 0 0 0 0 1 0 0 0 1 0" color-interpolation-filters="sRGB"/></filter><g/><clipPath id="3cc4c80d87"><path d="M 0 705.261719 L 1440 705.261719 L 1440 810 L 0 810 Z M 0 705.261719 " clip-rule="nonzero"/></clipPath><clipPath id="6d9b39d9ed"><path d="M -15.496094 705.261719 L 1586.632812 705.261719 C 1590.015625 705.261719 1593.257812 706.605469 1595.648438 708.996094 C 1598.039062 711.386719 1599.382812 714.632812 1599.382812 718.011719 L 1599.382812 933.402344 C 1599.382812 936.785156 1598.039062 940.027344 1595.648438 942.417969 C 1593.257812 944.808594 1590.015625 946.152344 1586.632812 946.152344 L -15.496094 946.152344 C -18.878906 946.152344 -22.121094 944.808594 -24.511719 942.417969 C -26.902344 940.027344 -28.246094 936.785156 -28.246094 933.402344 L -28.246094 718.011719 C -28.246094 714.632812 -26.902344 711.386719 -24.511719 708.996094 C -22.121094 706.605469 -18.878906 705.261719 -15.496094 705.261719 Z M -15.496094 705.261719 " clip-rule="nonzero"/></clipPath><clipPath id="b57f762248"><path d="M 0 0.261719 L 1440 0.261719 L 1440 105 L 0 105 Z M 0 0.261719 " clip-rule="nonzero"/></clipPath><clipPath id="f378405bd4"><path d="M -15.496094 0.261719 L 1586.632812 0.261719 C 1590.015625 0.261719 1593.257812 1.605469 1595.648438 3.996094 C 1598.039062 6.386719 1599.382812 9.632812 1599.382812 13.011719 L 1599.382812 228.402344 C 1599.382812 231.785156 1598.039062 235.027344 1595.648438 237.417969 C 1593.257812 239.808594 1590.015625 241.152344 1586.632812 241.152344 L -15.496094 241.152344 C -18.878906 241.152344 -22.121094 239.808594 -24.511719 237.417969 C -26.902344 235.027344 -28.246094 231.785156 -28.246094 228.402344 L -28.246094 13.011719 C -28.246094 9.632812 -26.902344 6.386719 -24.511719 3.996094 C -22.121094 1.605469 -18.878906 0.261719 -15.496094 0.261719 Z M -15.496094 0.261719 " clip-rule="nonzero"/></clipPath><clipPath id="152f40be7c"><rect x="0" width="1440" y="0" height="105"/></clipPath><clipPath id="67fe9c1fd9"><path d="M 0 705.261719 L 1440 705.261719 L 1440 810 L 0 810 Z M 0 705.261719 " clip-rule="nonzero"/></clipPath><clipPath id="8ca35665db"><path d="M -15.460938 705.261719 L 1586.597656 705.261719 C 1589.976562 705.261719 1593.222656 706.605469 1595.613281 708.996094 C 1598.003906 711.386719 1599.347656 714.632812 1599.347656 718.011719 L 1599.347656 933.390625 C 1599.347656 936.773438 1598.003906 940.015625 1595.613281 942.40625 C 1593.222656 944.796875 1589.976562 946.140625 1586.597656 946.140625 L -15.460938 946.140625 C -18.839844 946.140625 -22.082031 944.796875 -24.472656 942.40625 C -26.867188 940.015625 -28.207031 936.773438 -28.207031 933.390625 L -28.207031 718.011719 C -28.207031 714.632812 -26.867188 711.386719 -24.472656 708.996094 C -22.082031 706.605469 -18.839844 705.261719 -15.460938 705.261719 Z M -15.460938 705.261719 " clip-rule="nonzero"/></clipPath><clipPath id="e0a695a8c8"><path d="M 225.921875 167.921875 L 1214.886719 167.921875 L 1214.886719 408.8125 L 225.921875 408.8125 Z M 225.921875 167.921875 " clip-rule="nonzero"/></clipPath><clipPath id="12e3185f43"><path d="M 238.671875 167.921875 L 1201.328125 167.921875 C 1204.710938 167.921875 1207.953125 169.265625 1210.34375 171.65625 C 1212.734375 174.046875 1214.078125 177.289062 1214.078125 180.671875 L 1214.078125 396.0625 C 1214.078125 399.445312 1212.734375 402.6875 1210.34375 405.078125 C 1207.953125 407.46875 1204.710938 408.8125 1201.328125 408.8125 L 238.671875 408.8125 C 235.289062 408.8125 232.046875 407.46875 229.65625 405.078125 C 227.265625 402.6875 225.921875 399.445312 225.921875 396.0625 L 225.921875 180.671875 C 225.921875 177.289062 227.265625 174.046875 229.65625 171.65625 C 232.046875 169.265625 235.289062 167.921875 238.671875 167.921875 Z M 238.671875 167.921875 " clip-rule="nonzero"/></clipPath><clipPath id="937aa2400a"><path d="M 0.921875 0.921875 L 989 0.921875 L 989 241.8125 L 0.921875 241.8125 Z M 0.921875 0.921875 " clip-rule="nonzero"/></clipPath><clipPath id="9a76da6abe"><path d="M 13.671875 0.921875 L 976.328125 0.921875 C 979.710938 0.921875 982.953125 2.265625 985.34375 4.65625 C 987.734375 7.046875 989.078125 10.289062 989.078125 13.671875 L 989.078125 229.0625 C 989.078125 232.445312 987.734375 235.6875 985.34375 238.078125 C 982.953125 240.46875 979.710938 241.8125 976.328125 241.8125 L 13.671875 241.8125 C 10.289062 241.8125 7.046875 240.46875 4.65625 238.078125 C 2.265625 235.6875 0.921875 232.445312 0.921875 229.0625 L 0.921875 13.671875 C 0.921875 10.289062 2.265625 7.046875 4.65625 4.65625 C 7.046875 2.265625 10.289062 0.921875 13.671875 0.921875 Z M 13.671875 0.921875 " clip-rule="nonzero"/></clipPath><clipPath id="e308cb30cd"><rect x="0" width="990" y="0" height="242"/></clipPath><clipPath id="ca9ba592dc"><path d="M 225.941406 167.921875 L 1214.421875 167.921875 L 1214.421875 408.671875 L 225.941406 408.671875 Z M 225.941406 167.921875 " clip-rule="nonzero"/></clipPath><clipPath id="a11ff14dc0"><path d="M 238.691406 167.921875 L 1201.300781 167.921875 C 1204.683594 167.921875 1207.925781 169.265625 1210.316406 171.65625 C 1212.707031 174.046875 1214.050781 177.289062 1214.050781 180.671875 L 1214.050781 396.050781 C 1214.050781 399.433594 1212.707031 402.675781 1210.316406 405.066406 C 1207.925781 407.457031 1204.683594 408.800781 1201.300781 408.800781 L 238.691406 408.800781 C 235.308594 408.800781 232.066406 407.457031 229.675781 405.066406 C 227.285156 402.675781 225.941406 399.433594 225.941406 396.050781 L 225.941406 180.671875 C 225.941406 177.289062 227.285156 174.046875 229.675781 171.65625 C 232.066406 169.265625 235.308594 167.921875 238.691406 167.921875 Z M 238.691406 167.921875 " clip-rule="nonzero"/></clipPath><clipPath id="8c25771e97"><path d="M 0 0 L 1440 0 L 1440 810 L 0 810 Z M 0 0 " clip-rule="nonzero"/></clipPath><radialGradient gradientTransform="matrix(1.00009, 0, 0, 0.99991, 51.266224, 227.713105)" gradientUnits="userSpaceOnUse" r="1292.518578" cx="0" id="c60bb18dee" cy="18.030795" fx="0" fy="18.030795"><stop stop-opacity="1" stop-color="rgb(10.655212%, 16.149902%, 54.225159%)" offset="0"/><stop stop-opacity="1" stop-color="rgb(10.786438%, 16.290283%, 54.43573%)" offset="0.00390625"/><stop stop-opacity="1" stop-color="rgb(10.917664%, 16.430664%, 54.647827%)" offset="0.0078125"/><stop stop-opacity="1" stop-color="rgb(11.050415%, 16.572571%, 54.858398%)" offset="0.0117188"/><stop stop-opacity="1" stop-color="rgb(11.181641%, 16.712952%, 55.070496%)" offset="0.015625"/><stop stop-opacity="1" stop-color="rgb(11.312866%, 16.854858%, 55.281067%)" offset="0.0195312"/><stop stop-opacity="1" stop-color="rgb(11.445618%, 16.995239%, 55.493164%)" offset="0.0234375"/><stop stop-opacity="1" stop-color="rgb(11.576843%, 17.13562%, 55.703735%)" offset="0.0273438"/><stop stop-opacity="1" stop-color="rgb(11.708069%, 17.277527%, 55.915833%)" offset="0.03125"/><stop stop-opacity="1" stop-color="rgb(11.84082%, 17.417908%, 56.12793%)" offset="0.0351562"/><stop stop-opacity="1" stop-color="rgb(11.972046%, 17.558289%, 56.338501%)" offset="0.0390625"/><stop stop-opacity="1" stop-color="rgb(12.103271%, 17.700195%, 56.550598%)" offset="0.0429688"/><stop stop-opacity="1" stop-color="rgb(12.236023%, 17.840576%, 56.761169%)" offset="0.046875"/><stop stop-opacity="1" stop-color="rgb(12.367249%, 17.980957%, 56.973267%)" offset="0.0507812"/><stop stop-opacity="1" stop-color="rgb(12.498474%, 18.122864%, 57.183838%)" offset="0.0546875"/><stop stop-opacity="1" stop-color="rgb(12.631226%, 18.263245%, 57.395935%)" offset="0.0585938"/><stop stop-opacity="1" stop-color="rgb(12.762451%, 18.405151%, 57.606506%)" offset="0.0625"/><stop stop-opacity="1" stop-color="rgb(12.893677%, 18.545532%, 57.818604%)" offset="0.0664062"/><stop stop-opacity="1" stop-color="rgb(13.026428%, 18.685913%, 58.029175%)" offset="0.0703125"/><stop stop-opacity="1" stop-color="rgb(13.157654%, 18.82782%, 58.241272%)" offset="0.0742188"/><stop stop-opacity="1" stop-color="rgb(13.288879%, 18.968201%, 58.453369%)" offset="0.078125"/><stop stop-opacity="1" stop-color="rgb(13.421631%, 19.108582%, 58.66394%)" offset="0.0820312"/><stop stop-opacity="1" stop-color="rgb(13.552856%, 19.250488%, 58.876038%)" offset="0.0859375"/><stop stop-opacity="1" stop-color="rgb(13.684082%, 19.390869%, 59.086609%)" offset="0.0898438"/><stop stop-opacity="1" stop-color="rgb(13.816833%, 19.53125%, 59.298706%)" offset="0.09375"/><stop stop-opacity="1" stop-color="rgb(13.948059%, 19.673157%, 59.509277%)" offset="0.0976562"/><stop stop-opacity="1" stop-color="rgb(14.079285%, 19.813538%, 59.721375%)" offset="0.101562"/><stop stop-opacity="1" stop-color="rgb(14.21051%, 19.955444%, 59.931946%)" offset="0.105469"/><stop stop-opacity="1" stop-color="rgb(14.343262%, 20.095825%, 60.144043%)" offset="0.109375"/><stop stop-opacity="1" stop-color="rgb(14.474487%, 20.236206%, 60.354614%)" offset="0.113281"/><stop stop-opacity="1" stop-color="rgb(14.605713%, 20.378113%, 60.566711%)" offset="0.117188"/><stop stop-opacity="1" stop-color="rgb(14.738464%, 20.518494%, 60.778809%)" offset="0.121094"/><stop stop-opacity="1" stop-color="rgb(14.86969%, 20.658875%, 60.98938%)" offset="0.125"/><stop stop-opacity="1" stop-color="rgb(15.000916%, 20.800781%, 61.201477%)" offset="0.128906"/><stop stop-opacity="1" stop-color="rgb(15.133667%, 20.941162%, 61.412048%)" offset="0.132812"/><stop stop-opacity="1" stop-color="rgb(15.264893%, 21.081543%, 61.624146%)" offset="0.136719"/><stop stop-opacity="1" stop-color="rgb(15.396118%, 21.22345%, 61.834717%)" offset="0.140625"/><stop stop-opacity="1" stop-color="rgb(15.52887%, 21.363831%, 62.046814%)" offset="0.144531"/><stop stop-opacity="1" stop-color="rgb(15.660095%, 21.505737%, 62.257385%)" offset="0.148438"/><stop stop-opacity="1" stop-color="rgb(15.791321%, 21.646118%, 62.469482%)" offset="0.152344"/><stop stop-opacity="1" stop-color="rgb(15.924072%, 21.786499%, 62.680054%)" offset="0.15625"/><stop stop-opacity="1" stop-color="rgb(16.055298%, 21.928406%, 62.892151%)" offset="0.160156"/><stop stop-opacity="1" stop-color="rgb(16.186523%, 22.068787%, 63.104248%)" offset="0.164062"/><stop stop-opacity="1" stop-color="rgb(16.319275%, 22.209167%, 63.314819%)" offset="0.167969"/><stop stop-opacity="1" stop-color="rgb(16.4505%, 22.351074%, 63.526917%)" offset="0.171875"/><stop stop-opacity="1" stop-color="rgb(16.581726%, 22.491455%, 63.737488%)" offset="0.175781"/><stop stop-opacity="1" stop-color="rgb(16.714478%, 22.631836%, 63.949585%)" offset="0.179688"/><stop stop-opacity="1" stop-color="rgb(16.845703%, 22.773743%, 64.160156%)" offset="0.183594"/><stop stop-opacity="1" stop-color="rgb(16.976929%, 22.914124%, 64.372253%)" offset="0.1875"/><stop stop-opacity="1" stop-color="rgb(17.10968%, 23.05603%, 64.582825%)" offset="0.191406"/><stop stop-opacity="1" stop-color="rgb(17.240906%, 23.196411%, 64.794922%)" offset="0.195312"/><stop stop-opacity="1" stop-color="rgb(17.372131%, 23.336792%, 65.005493%)" offset="0.199219"/><stop stop-opacity="1" stop-color="rgb(17.504883%, 23.478699%, 65.21759%)" offset="0.203125"/><stop stop-opacity="1" stop-color="rgb(17.636108%, 23.61908%, 65.429688%)" offset="0.207031"/><stop stop-opacity="1" stop-color="rgb(17.767334%, 23.75946%, 65.640259%)" offset="0.210938"/><stop stop-opacity="1" stop-color="rgb(17.900085%, 23.901367%, 65.852356%)" offset="0.214844"/><stop stop-opacity="1" stop-color="rgb(18.031311%, 24.041748%, 66.062927%)" offset="0.21875"/><stop stop-opacity="1" stop-color="rgb(18.162537%, 24.182129%, 66.275024%)" offset="0.222656"/><stop stop-opacity="1" stop-color="rgb(18.295288%, 24.324036%, 66.485596%)" offset="0.226562"/><stop stop-opacity="1" stop-color="rgb(18.426514%, 24.464417%, 66.697693%)" offset="0.230469"/><stop stop-opacity="1" stop-color="rgb(18.557739%, 24.606323%, 66.908264%)" offset="0.234375"/><stop stop-opacity="1" stop-color="rgb(18.688965%, 24.746704%, 67.120361%)" offset="0.238281"/><stop stop-opacity="1" stop-color="rgb(18.821716%, 24.887085%, 67.332458%)" offset="0.242188"/><stop stop-opacity="1" stop-color="rgb(18.952942%, 25.028992%, 67.54303%)" offset="0.246094"/><stop stop-opacity="1" stop-color="rgb(19.084167%, 25.169373%, 67.755127%)" offset="0.25"/><stop stop-opacity="1" stop-color="rgb(19.216919%, 25.309753%, 67.965698%)" offset="0.253906"/><stop stop-opacity="1" stop-color="rgb(19.348145%, 25.45166%, 68.177795%)" offset="0.257812"/><stop stop-opacity="1" stop-color="rgb(19.47937%, 25.592041%, 68.388367%)" offset="0.261719"/><stop stop-opacity="1" stop-color="rgb(19.612122%, 25.732422%, 68.600464%)" offset="0.265625"/><stop stop-opacity="1" stop-color="rgb(19.743347%, 25.874329%, 68.811035%)" offset="0.269531"/><stop stop-opacity="1" stop-color="rgb(19.874573%, 26.014709%, 69.023132%)" offset="0.273438"/><stop stop-opacity="1" stop-color="rgb(20.007324%, 26.156616%, 69.233704%)" offset="0.277344"/><stop stop-opacity="1" stop-color="rgb(20.13855%, 26.296997%, 69.445801%)" offset="0.28125"/><stop stop-opacity="1" stop-color="rgb(20.269775%, 26.437378%, 69.657898%)" offset="0.285156"/><stop stop-opacity="1" stop-color="rgb(20.402527%, 26.579285%, 69.868469%)" offset="0.289062"/><stop stop-opacity="1" stop-color="rgb(20.533752%, 26.719666%, 70.080566%)" offset="0.292969"/><stop stop-opacity="1" stop-color="rgb(20.664978%, 26.860046%, 70.291138%)" offset="0.296875"/><stop stop-opacity="1" stop-color="rgb(20.797729%, 27.001953%, 70.503235%)" offset="0.300781"/><stop stop-opacity="1" stop-color="rgb(20.928955%, 27.142334%, 70.713806%)" offset="0.304688"/><stop stop-opacity="1" stop-color="rgb(21.060181%, 27.284241%, 70.925903%)" offset="0.308594"/><stop stop-opacity="1" stop-color="rgb(21.192932%, 27.424622%, 71.136475%)" offset="0.3125"/><stop stop-opacity="1" stop-color="rgb(21.324158%, 27.565002%, 71.348572%)" offset="0.316406"/><stop stop-opacity="1" stop-color="rgb(21.455383%, 27.706909%, 71.559143%)" offset="0.320312"/><stop stop-opacity="1" stop-color="rgb(21.588135%, 27.84729%, 71.77124%)" offset="0.324219"/><stop stop-opacity="1" stop-color="rgb(21.71936%, 27.987671%, 71.983337%)" offset="0.328125"/><stop stop-opacity="1" stop-color="rgb(21.850586%, 28.129578%, 72.193909%)" offset="0.332031"/><stop stop-opacity="1" stop-color="rgb(21.983337%, 28.269958%, 72.406006%)" offset="0.335938"/><stop stop-opacity="1" stop-color="rgb(22.114563%, 28.410339%, 72.616577%)" offset="0.339844"/><stop stop-opacity="1" stop-color="rgb(22.245789%, 28.552246%, 72.828674%)" offset="0.34375"/><stop stop-opacity="1" stop-color="rgb(22.37854%, 28.692627%, 73.039246%)" offset="0.347656"/><stop stop-opacity="1" stop-color="rgb(22.509766%, 28.834534%, 73.251343%)" offset="0.351562"/><stop stop-opacity="1" stop-color="rgb(22.640991%, 28.974915%, 73.461914%)" offset="0.355469"/><stop stop-opacity="1" stop-color="rgb(22.772217%, 29.115295%, 73.674011%)" offset="0.359375"/><stop stop-opacity="1" stop-color="rgb(22.904968%, 29.257202%, 73.884583%)" offset="0.363281"/><stop stop-opacity="1" stop-color="rgb(23.036194%, 29.397583%, 74.09668%)" offset="0.367188"/><stop stop-opacity="1" stop-color="rgb(23.167419%, 29.537964%, 74.308777%)" offset="0.371094"/><stop stop-opacity="1" stop-color="rgb(23.300171%, 29.679871%, 74.519348%)" offset="0.375"/><stop stop-opacity="1" stop-color="rgb(23.431396%, 29.820251%, 74.731445%)" offset="0.378906"/><stop stop-opacity="1" stop-color="rgb(23.562622%, 29.960632%, 74.942017%)" offset="0.382812"/><stop stop-opacity="1" stop-color="rgb(23.695374%, 30.102539%, 75.154114%)" offset="0.386719"/><stop stop-opacity="1" stop-color="rgb(23.826599%, 30.24292%, 75.364685%)" offset="0.390625"/><stop stop-opacity="1" stop-color="rgb(23.957825%, 30.384827%, 75.576782%)" offset="0.394531"/><stop stop-opacity="1" stop-color="rgb(24.090576%, 30.525208%, 75.787354%)" offset="0.398438"/><stop stop-opacity="1" stop-color="rgb(24.221802%, 30.665588%, 75.999451%)" offset="0.402344"/><stop stop-opacity="1" stop-color="rgb(24.353027%, 30.807495%, 76.210022%)" offset="0.40625"/><stop stop-opacity="1" stop-color="rgb(24.485779%, 30.947876%, 76.422119%)" offset="0.410156"/><stop stop-opacity="1" stop-color="rgb(24.617004%, 31.088257%, 76.634216%)" offset="0.414062"/><stop stop-opacity="1" stop-color="rgb(24.74823%, 31.230164%, 76.844788%)" offset="0.417969"/><stop stop-opacity="1" stop-color="rgb(24.880981%, 31.370544%, 77.056885%)" offset="0.421875"/><stop stop-opacity="1" stop-color="rgb(25.012207%, 31.510925%, 77.267456%)" offset="0.425781"/><stop stop-opacity="1" stop-color="rgb(25.143433%, 31.652832%, 77.479553%)" offset="0.429688"/><stop stop-opacity="1" stop-color="rgb(25.276184%, 31.793213%, 77.690125%)" offset="0.433594"/><stop stop-opacity="1" stop-color="rgb(25.40741%, 31.93512%, 77.902222%)" offset="0.4375"/><stop stop-opacity="1" stop-color="rgb(25.538635%, 32.0755%, 78.112793%)" offset="0.441406"/><stop stop-opacity="1" stop-color="rgb(25.671387%, 32.215881%, 78.32489%)" offset="0.445312"/><stop stop-opacity="1" stop-color="rgb(25.802612%, 32.357788%, 78.536987%)" offset="0.449219"/><stop stop-opacity="1" stop-color="rgb(25.933838%, 32.498169%, 78.747559%)" offset="0.453125"/><stop stop-opacity="1" stop-color="rgb(26.066589%, 32.63855%, 78.959656%)" offset="0.457031"/><stop stop-opacity="1" stop-color="rgb(26.197815%, 32.780457%, 79.170227%)" offset="0.460938"/><stop stop-opacity="1" stop-color="rgb(26.329041%, 32.920837%, 79.382324%)" offset="0.464844"/><stop stop-opacity="1" stop-color="rgb(26.461792%, 33.061218%, 79.592896%)" offset="0.46875"/><stop stop-opacity="1" stop-color="rgb(26.593018%, 33.203125%, 79.804993%)" offset="0.472656"/><stop stop-opacity="1" stop-color="rgb(26.724243%, 33.343506%, 80.015564%)" offset="0.476562"/><stop stop-opacity="1" stop-color="rgb(26.856995%, 33.485413%, 80.227661%)" offset="0.480469"/><stop stop-opacity="1" stop-color="rgb(26.98822%, 33.625793%, 80.438232%)" offset="0.484375"/><stop stop-opacity="1" stop-color="rgb(27.119446%, 33.766174%, 80.65033%)" offset="0.488281"/><stop stop-opacity="1" stop-color="rgb(27.250671%, 33.908081%, 80.862427%)" offset="0.492188"/><stop stop-opacity="1" stop-color="rgb(27.31781%, 33.978271%, 80.967712%)" offset="0.496094"/><stop stop-opacity="1" stop-color="rgb(27.250671%, 33.908081%, 80.862427%)" offset="0.503906"/><stop stop-opacity="1" stop-color="rgb(27.119446%, 33.766174%, 80.65033%)" offset="0.507812"/><stop stop-opacity="1" stop-color="rgb(26.98822%, 33.625793%, 80.438232%)" offset="0.511719"/><stop stop-opacity="1" stop-color="rgb(26.856995%, 33.485413%, 80.227661%)" offset="0.515625"/><stop stop-opacity="1" stop-color="rgb(26.724243%, 33.343506%, 80.015564%)" offset="0.519531"/><stop stop-opacity="1" stop-color="rgb(26.593018%, 33.203125%, 79.804993%)" offset="0.523438"/><stop stop-opacity="1" stop-color="rgb(26.461792%, 33.061218%, 79.592896%)" offset="0.527344"/><stop stop-opacity="1" stop-color="rgb(26.329041%, 32.920837%, 79.382324%)" offset="0.53125"/><stop stop-opacity="1" stop-color="rgb(26.197815%, 32.780457%, 79.170227%)" offset="0.535156"/><stop stop-opacity="1" stop-color="rgb(26.066589%, 32.63855%, 78.959656%)" offset="0.539062"/><stop stop-opacity="1" stop-color="rgb(25.933838%, 32.498169%, 78.747559%)" offset="0.542969"/><stop stop-opacity="1" stop-color="rgb(25.802612%, 32.357788%, 78.536987%)" offset="0.546875"/><stop stop-opacity="1" stop-color="rgb(25.671387%, 32.215881%, 78.32489%)" offset="0.550781"/><stop stop-opacity="1" stop-color="rgb(25.538635%, 32.0755%, 78.112793%)" offset="0.554688"/><stop stop-opacity="1" stop-color="rgb(25.40741%, 31.93512%, 77.902222%)" offset="0.558594"/><stop stop-opacity="1" stop-color="rgb(25.276184%, 31.793213%, 77.690125%)" offset="0.5625"/><stop stop-opacity="1" stop-color="rgb(25.143433%, 31.652832%, 77.479553%)" offset="0.566406"/><stop stop-opacity="1" stop-color="rgb(25.012207%, 31.510925%, 77.267456%)" offset="0.570312"/><stop stop-opacity="1" stop-color="rgb(24.880981%, 31.370544%, 77.056885%)" offset="0.574219"/><stop stop-opacity="1" stop-color="rgb(24.74823%, 31.230164%, 76.844788%)" offset="0.578125"/><stop stop-opacity="1" stop-color="rgb(24.617004%, 31.088257%, 76.634216%)" offset="0.582031"/><stop stop-opacity="1" stop-color="rgb(24.485779%, 30.947876%, 76.422119%)" offset="0.585938"/><stop stop-opacity="1" stop-color="rgb(24.353027%, 30.807495%, 76.210022%)" offset="0.589844"/><stop stop-opacity="1" stop-color="rgb(24.221802%, 30.665588%, 75.999451%)" offset="0.59375"/><stop stop-opacity="1" stop-color="rgb(24.090576%, 30.525208%, 75.787354%)" offset="0.597656"/><stop stop-opacity="1" stop-color="rgb(23.957825%, 30.384827%, 75.576782%)" offset="0.601562"/><stop stop-opacity="1" stop-color="rgb(23.826599%, 30.24292%, 75.364685%)" offset="0.605469"/><stop stop-opacity="1" stop-color="rgb(23.695374%, 30.102539%, 75.154114%)" offset="0.609375"/><stop stop-opacity="1" stop-color="rgb(23.562622%, 29.960632%, 74.942017%)" offset="0.613281"/><stop stop-opacity="1" stop-color="rgb(23.431396%, 29.820251%, 74.731445%)" offset="0.617188"/><stop stop-opacity="1" stop-color="rgb(23.300171%, 29.679871%, 74.519348%)" offset="0.621094"/><stop stop-opacity="1" stop-color="rgb(23.167419%, 29.537964%, 74.308777%)" offset="0.625"/><stop stop-opacity="1" stop-color="rgb(23.036194%, 29.397583%, 74.09668%)" offset="0.628906"/><stop stop-opacity="1" stop-color="rgb(22.904968%, 29.257202%, 73.884583%)" offset="0.632812"/><stop stop-opacity="1" stop-color="rgb(22.772217%, 29.115295%, 73.674011%)" offset="0.636719"/><stop stop-opacity="1" stop-color="rgb(22.640991%, 28.974915%, 73.461914%)" offset="0.640625"/><stop stop-opacity="1" stop-color="rgb(22.509766%, 28.834534%, 73.251343%)" offset="0.644531"/><stop stop-opacity="1" stop-color="rgb(22.37854%, 28.692627%, 73.039246%)" offset="0.648438"/><stop stop-opacity="1" stop-color="rgb(22.245789%, 28.552246%, 72.828674%)" offset="0.652344"/><stop stop-opacity="1" stop-color="rgb(22.114563%, 28.410339%, 72.616577%)" offset="0.65625"/><stop stop-opacity="1" stop-color="rgb(21.983337%, 28.269958%, 72.406006%)" offset="0.660156"/><stop stop-opacity="1" stop-color="rgb(21.850586%, 28.129578%, 72.193909%)" offset="0.664062"/><stop stop-opacity="1" stop-color="rgb(21.71936%, 27.987671%, 71.983337%)" offset="0.667969"/><stop stop-opacity="1" stop-color="rgb(21.588135%, 27.84729%, 71.77124%)" offset="0.671875"/><stop stop-opacity="1" stop-color="rgb(21.455383%, 27.706909%, 71.559143%)" offset="0.675781"/><stop stop-opacity="1" stop-color="rgb(21.324158%, 27.565002%, 71.348572%)" offset="0.679688"/><stop stop-opacity="1" stop-color="rgb(21.192932%, 27.424622%, 71.136475%)" offset="0.683594"/><stop stop-opacity="1" stop-color="rgb(21.060181%, 27.284241%, 70.925903%)" offset="0.6875"/><stop stop-opacity="1" stop-color="rgb(20.928955%, 27.142334%, 70.713806%)" offset="0.691406"/><stop stop-opacity="1" stop-color="rgb(20.797729%, 27.001953%, 70.503235%)" offset="0.695312"/><stop stop-opacity="1" stop-color="rgb(20.664978%, 26.860046%, 70.291138%)" offset="0.699219"/><stop stop-opacity="1" stop-color="rgb(20.533752%, 26.719666%, 70.080566%)" offset="0.703125"/><stop stop-opacity="1" stop-color="rgb(20.402527%, 26.579285%, 69.868469%)" offset="0.707031"/><stop stop-opacity="1" stop-color="rgb(20.269775%, 26.437378%, 69.657898%)" offset="0.710938"/><stop stop-opacity="1" stop-color="rgb(20.13855%, 26.296997%, 69.445801%)" offset="0.714844"/><stop stop-opacity="1" stop-color="rgb(20.007324%, 26.156616%, 69.233704%)" offset="0.71875"/><stop stop-opacity="1" stop-color="rgb(19.874573%, 26.014709%, 69.023132%)" offset="0.722656"/><stop stop-opacity="1" stop-color="rgb(19.743347%, 25.874329%, 68.811035%)" offset="0.726562"/><stop stop-opacity="1" stop-color="rgb(19.612122%, 25.732422%, 68.600464%)" offset="0.730469"/><stop stop-opacity="1" stop-color="rgb(19.47937%, 25.592041%, 68.388367%)" offset="0.734375"/><stop stop-opacity="1" stop-color="rgb(19.348145%, 25.45166%, 68.177795%)" offset="0.738281"/><stop stop-opacity="1" stop-color="rgb(19.216919%, 25.309753%, 67.965698%)" offset="0.742188"/><stop stop-opacity="1" stop-color="rgb(19.084167%, 25.169373%, 67.755127%)" offset="0.746094"/><stop stop-opacity="1" stop-color="rgb(18.952942%, 25.028992%, 67.54303%)" offset="0.75"/><stop stop-opacity="1" stop-color="rgb(18.821716%, 24.887085%, 67.332458%)" offset="0.753906"/><stop stop-opacity="1" stop-color="rgb(18.688965%, 24.746704%, 67.120361%)" offset="0.757812"/><stop stop-opacity="1" stop-color="rgb(18.557739%, 24.606323%, 66.908264%)" offset="0.761719"/><stop stop-opacity="1" stop-color="rgb(18.426514%, 24.464417%, 66.697693%)" offset="0.765625"/><stop stop-opacity="1" stop-color="rgb(18.295288%, 24.324036%, 66.485596%)" offset="0.769531"/><stop stop-opacity="1" stop-color="rgb(18.162537%, 24.182129%, 66.275024%)" offset="0.773438"/><stop stop-opacity="1" stop-color="rgb(18.031311%, 24.041748%, 66.062927%)" offset="0.777344"/><stop stop-opacity="1" stop-color="rgb(17.900085%, 23.901367%, 65.852356%)" offset="0.78125"/><stop stop-opacity="1" stop-color="rgb(17.767334%, 23.75946%, 65.640259%)" offset="0.785156"/><stop stop-opacity="1" stop-color="rgb(17.636108%, 23.61908%, 65.429688%)" offset="0.789062"/><stop stop-opacity="1" stop-color="rgb(17.504883%, 23.478699%, 65.21759%)" offset="0.792969"/><stop stop-opacity="1" stop-color="rgb(17.372131%, 23.336792%, 65.005493%)" offset="0.796875"/><stop stop-opacity="1" stop-color="rgb(17.240906%, 23.196411%, 64.794922%)" offset="0.800781"/><stop stop-opacity="1" stop-color="rgb(17.10968%, 23.05603%, 64.582825%)" offset="0.804688"/><stop stop-opacity="1" stop-color="rgb(16.976929%, 22.914124%, 64.372253%)" offset="0.808594"/><stop stop-opacity="1" stop-color="rgb(16.845703%, 22.773743%, 64.160156%)" offset="0.8125"/><stop stop-opacity="1" stop-color="rgb(16.714478%, 22.631836%, 63.949585%)" offset="0.816406"/><stop stop-opacity="1" stop-color="rgb(16.581726%, 22.491455%, 63.737488%)" offset="0.820312"/><stop stop-opacity="1" stop-color="rgb(16.4505%, 22.351074%, 63.526917%)" offset="0.824219"/><stop stop-opacity="1" stop-color="rgb(16.319275%, 22.209167%, 63.314819%)" offset="0.828125"/><stop stop-opacity="1" stop-color="rgb(16.186523%, 22.068787%, 63.104248%)" offset="0.832031"/><stop stop-opacity="1" stop-color="rgb(16.055298%, 21.928406%, 62.892151%)" offset="0.835938"/><stop stop-opacity="1" stop-color="rgb(15.924072%, 21.786499%, 62.680054%)" offset="0.839844"/><stop stop-opacity="1" stop-color="rgb(15.791321%, 21.646118%, 62.469482%)" offset="0.84375"/><stop stop-opacity="1" stop-color="rgb(15.660095%, 21.505737%, 62.257385%)" offset="0.847656"/><stop stop-opacity="1" stop-color="rgb(15.52887%, 21.363831%, 62.046814%)" offset="0.851562"/><stop stop-opacity="1" stop-color="rgb(15.396118%, 21.22345%, 61.834717%)" offset="0.855469"/><stop stop-opacity="1" stop-color="rgb(15.264893%, 21.081543%, 61.624146%)" offset="0.859375"/><stop stop-opacity="1" stop-color="rgb(15.133667%, 20.941162%, 61.412048%)" offset="0.863281"/><stop stop-opacity="1" stop-color="rgb(15.000916%, 20.800781%, 61.201477%)" offset="0.867188"/><stop stop-opacity="1" stop-color="rgb(14.86969%, 20.658875%, 60.98938%)" offset="0.871094"/><stop stop-opacity="1" stop-color="rgb(14.738464%, 20.518494%, 60.778809%)" offset="0.875"/><stop stop-opacity="1" stop-color="rgb(14.605713%, 20.378113%, 60.566711%)" offset="0.878906"/><stop stop-opacity="1" stop-color="rgb(14.474487%, 20.236206%, 60.354614%)" offset="0.882812"/><stop stop-opacity="1" stop-color="rgb(14.343262%, 20.095825%, 60.144043%)" offset="0.886719"/><stop stop-opacity="1" stop-color="rgb(14.21051%, 19.955444%, 59.931946%)" offset="0.890625"/><stop stop-opacity="1" stop-color="rgb(14.079285%, 19.813538%, 59.721375%)" offset="0.894531"/><stop stop-opacity="1" stop-color="rgb(13.948059%, 19.673157%, 59.509277%)" offset="0.898438"/><stop stop-opacity="1" stop-color="rgb(13.816833%, 19.53125%, 59.298706%)" offset="0.902344"/><stop stop-opacity="1" stop-color="rgb(13.684082%, 19.390869%, 59.086609%)" offset="0.90625"/><stop stop-opacity="1" stop-color="rgb(13.552856%, 19.250488%, 58.876038%)" offset="0.910156"/><stop stop-opacity="1" stop-color="rgb(13.421631%, 19.108582%, 58.66394%)" offset="0.914062"/><stop stop-opacity="1" stop-color="rgb(13.288879%, 18.968201%, 58.453369%)" offset="0.917969"/><stop stop-opacity="1" stop-color="rgb(13.157654%, 18.82782%, 58.241272%)" offset="0.921875"/><stop stop-opacity="1" stop-color="rgb(13.026428%, 18.685913%, 58.029175%)" offset="0.925781"/><stop stop-opacity="1" stop-color="rgb(12.893677%, 18.545532%, 57.818604%)" offset="0.929688"/><stop stop-opacity="1" stop-color="rgb(12.762451%, 18.405151%, 57.606506%)" offset="0.933594"/><stop stop-opacity="1" stop-color="rgb(12.631226%, 18.263245%, 57.395935%)" offset="0.9375"/><stop stop-opacity="1" stop-color="rgb(12.498474%, 18.122864%, 57.183838%)" offset="0.941406"/><stop stop-opacity="1" stop-color="rgb(12.367249%, 17.980957%, 56.973267%)" offset="0.945312"/><stop stop-opacity="1" stop-color="rgb(12.236023%, 17.840576%, 56.761169%)" offset="0.949219"/><stop stop-opacity="1" stop-color="rgb(12.103271%, 17.700195%, 56.550598%)" offset="0.953125"/><stop stop-opacity="1" stop-color="rgb(11.972046%, 17.558289%, 56.338501%)" offset="0.957031"/><stop stop-opacity="1" stop-color="rgb(11.84082%, 17.417908%, 56.12793%)" offset="0.960938"/><stop stop-opacity="1" stop-color="rgb(11.708069%, 17.277527%, 55.915833%)" offset="0.964844"/><stop stop-opacity="1" stop-color="rgb(11.576843%, 17.13562%, 55.703735%)" offset="0.96875"/><stop stop-opacity="1" stop-color="rgb(11.445618%, 16.995239%, 55.493164%)" offset="0.972656"/><stop stop-opacity="1" stop-color="rgb(11.312866%, 16.854858%, 55.281067%)" offset="0.976562"/><stop stop-opacity="1" stop-color="rgb(11.181641%, 16.712952%, 55.070496%)" offset="0.980469"/><stop stop-opacity="1" stop-color="rgb(11.050415%, 16.572571%, 54.858398%)" offset="0.984375"/><stop stop-opacity="1" stop-color="rgb(10.917664%, 16.430664%, 54.647827%)" offset="0.988281"/><stop stop-opacity="1" stop-color="rgb(10.786438%, 16.290283%, 54.43573%)" offset="0.992188"/><stop stop-opacity="1" stop-color="rgb(10.655212%, 16.149902%, 54.225159%)" offset="0.996094"/><stop stop-opacity="1" stop-color="rgb(10.5896%, 16.079712%, 54.119873%)" offset="1"/></radialGradient><clipPath id="801dbd508a"><rect x="0" width="1440" y="0" height="810"/></clipPath><clipPath id="513f76815e"><rect x="0" width="1440" y="0" height="810"/></clipPath><clipPath id="2e1f495083"><rect x="0" width="1440" y="0" height="810"/></clipPath><mask id="fd19cd86d4"><g filter="url(#7258c48d7f)"><g transform="matrix(1, 0, 0, 1, 0, 0.000000000000039746)"><g clip-path="url(#2e1f495083)"><g transform="matrix(1, 0, 0, 1, 0, 0.000000000000039746)"><g clip-path="url(#513f76815e)"><g fill="#000000" fill-opacity="1"><g transform="translate(51.138073, 474.125511)"><g><path d="M 147.078125 -58.9375 L 52.578125 -58.9375 C 52.578125 -49.789062 55.539062 -43.015625 61.46875 -38.609375 C 67.394531 -34.203125 73.832031 -32 80.78125 -32 C 88.0625 -32 93.816406 -32.972656 98.046875 -34.921875 C 102.285156 -36.867188 107.113281 -40.722656 112.53125 -46.484375 L 145.046875 -30.234375 C 131.492188 -7.535156 108.96875 3.8125 77.46875 3.8125 C 57.832031 3.8125 40.984375 -2.914062 26.921875 -16.375 C 12.867188 -29.84375 5.84375 -46.0625 5.84375 -65.03125 C 5.84375 -84 12.867188 -100.253906 26.921875 -113.796875 C 40.984375 -127.347656 57.832031 -134.125 77.46875 -134.125 C 98.132812 -134.125 114.941406 -128.148438 127.890625 -116.203125 C 140.847656 -104.265625 147.328125 -87.207031 147.328125 -65.03125 C 147.328125 -61.976562 147.242188 -59.945312 147.078125 -58.9375 Z M 53.84375 -83.828125 L 103.390625 -83.828125 C 102.367188 -90.597656 99.695312 -95.800781 95.375 -99.4375 C 91.0625 -103.082031 85.519531 -104.90625 78.75 -104.90625 C 71.289062 -104.90625 65.359375 -102.957031 60.953125 -99.0625 C 56.554688 -95.164062 54.1875 -90.085938 53.84375 -83.828125 Z M 53.84375 -83.828125 "/></g></g></g><g fill="#000000" fill-opacity="1"><g transform="translate(205.321075, 474.125511)"><g><path d="M 15.234375 -92.96875 L 97.03125 -92.96875 L 97.03125 -54.109375 L 15.234375 -54.109375 Z M 15.234375 -92.96875 "/></g></g></g><g fill="#000000" fill-opacity="1"><g transform="translate(318.608749, 474.125511)"><g><path d="M 84.59375 -97.28125 C 76.125 -97.28125 68.835938 -94.144531 62.734375 -87.875 C 56.640625 -81.613281 53.59375 -74.082031 53.59375 -65.28125 C 53.59375 -56.300781 56.640625 -48.675781 62.734375 -42.40625 C 68.835938 -36.144531 76.125 -33.015625 84.59375 -33.015625 C 88.65625 -33.015625 92.503906 -33.519531 96.140625 -34.53125 C 99.785156 -35.550781 102.453125 -36.570312 104.140625 -37.59375 L 106.4375 -39.125 L 121.671875 -7.875 C 120.484375 -7.03125 118.832031 -5.972656 116.71875 -4.703125 C 114.601562 -3.429688 109.773438 -1.695312 102.234375 0.5 C 94.703125 2.707031 86.617188 3.8125 77.984375 3.8125 C 58.847656 3.8125 42.039062 -2.914062 27.5625 -16.375 C 13.082031 -29.84375 5.84375 -45.976562 5.84375 -64.78125 C 5.84375 -83.738281 13.082031 -100.035156 27.5625 -113.671875 C 42.039062 -127.304688 58.847656 -134.125 77.984375 -134.125 C 86.617188 -134.125 94.578125 -133.109375 101.859375 -131.078125 C 109.140625 -129.046875 114.304688 -127.007812 117.359375 -124.96875 L 121.671875 -121.921875 L 106.4375 -91.1875 C 100.84375 -95.25 93.5625 -97.28125 84.59375 -97.28125 Z M 84.59375 -97.28125 "/></g></g></g><g fill="#000000" fill-opacity="1"><g transform="translate(444.352008, 474.125511)"><g/></g></g><g fill="#000000" fill-opacity="1"><g transform="translate(514.712331, 474.125511)"><g/></g></g><g fill="#000000" fill-opacity="1"><g transform="translate(585.076262, 474.125511)"><g><path d="M 15.234375 0 L 15.234375 -130.3125 L 60.203125 -130.3125 L 60.203125 -116.59375 L 60.703125 -116.59375 C 72.390625 -128.28125 84.835938 -134.125 98.046875 -134.125 C 104.484375 -134.125 110.875 -133.273438 117.21875 -131.578125 C 123.570312 -129.890625 129.671875 -127.265625 135.515625 -123.703125 C 141.359375 -120.148438 146.097656 -115.113281 149.734375 -108.59375 C 153.378906 -102.070312 155.203125 -94.492188 155.203125 -85.859375 L 155.203125 0 L 110.25 0 L 110.25 -73.671875 C 110.25 -80.441406 108.085938 -86.363281 103.765625 -91.4375 C 99.441406 -96.519531 93.8125 -99.0625 86.875 -99.0625 C 80.101562 -99.0625 73.960938 -96.4375 68.453125 -91.1875 C 62.953125 -85.9375 60.203125 -80.097656 60.203125 -73.671875 L 60.203125 0 Z M 15.234375 0 "/></g></g></g><g fill="#000000" fill-opacity="1"><g transform="translate(753.991752, 474.125511)"><g><path d="M 15.234375 0 L 15.234375 -130.3125 L 60.203125 -130.3125 L 60.203125 -116.59375 L 60.703125 -116.59375 C 72.390625 -128.28125 84.835938 -134.125 98.046875 -134.125 C 104.484375 -134.125 110.875 -133.273438 117.21875 -131.578125 C 123.570312 -129.890625 129.671875 -127.265625 135.515625 -123.703125 C 141.359375 -120.148438 146.097656 -115.113281 149.734375 -108.59375 C 153.378906 -102.070312 155.203125 -94.492188 155.203125 -85.859375 L 155.203125 0 L 110.25 0 L 110.25 -73.671875 C 110.25 -80.441406 108.085938 -86.363281 103.765625 -91.4375 C 99.441406 -96.519531 93.8125 -99.0625 86.875 -99.0625 C 80.101562 -99.0625 73.960938 -96.4375 68.453125 -91.1875 C 62.953125 -85.9375 60.203125 -80.097656 60.203125 -73.671875 L 60.203125 0 Z M 15.234375 0 "/></g></g></g><g fill="#000000" fill-opacity="1"><g transform="translate(922.907241, 474.125511)"><g><path d="M 147.078125 -58.9375 L 52.578125 -58.9375 C 52.578125 -49.789062 55.539062 -43.015625 61.46875 -38.609375 C 67.394531 -34.203125 73.832031 -32 80.78125 -32 C 88.0625 -32 93.816406 -32.972656 98.046875 -34.921875 C 102.285156 -36.867188 107.113281 -40.722656 112.53125 -46.484375 L 145.046875 -30.234375 C 131.492188 -7.535156 108.96875 3.8125 77.46875 3.8125 C 57.832031 3.8125 40.984375 -2.914062 26.921875 -16.375 C 12.867188 -29.84375 5.84375 -46.0625 5.84375 -65.03125 C 5.84375 -84 12.867188 -100.253906 26.921875 -113.796875 C 40.984375 -127.347656 57.832031 -134.125 77.46875 -134.125 C 98.132812 -134.125 114.941406 -128.148438 127.890625 -116.203125 C 140.847656 -104.265625 147.328125 -87.207031 147.328125 -65.03125 C 147.328125 -61.976562 147.242188 -59.945312 147.078125 -58.9375 Z M 53.84375 -83.828125 L 103.390625 -83.828125 C 102.367188 -90.597656 99.695312 -95.800781 95.375 -99.4375 C 91.0625 -103.082031 85.519531 -104.90625 78.75 -104.90625 C 71.289062 -104.90625 65.359375 -102.957031 60.953125 -99.0625 C 56.554688 -95.164062 54.1875 -90.085938 53.84375 -83.828125 Z M 53.84375 -83.828125 "/></g></g></g><g fill="#000000" fill-opacity="1"><g transform="translate(1077.090258, 474.125511)"><g><path d="M 84.59375 -97.28125 C 76.125 -97.28125 68.835938 -94.144531 62.734375 -87.875 C 56.640625 -81.613281 53.59375 -74.082031 53.59375 -65.28125 C 53.59375 -56.300781 56.640625 -48.675781 62.734375 -42.40625 C 68.835938 -36.144531 76.125 -33.015625 84.59375 -33.015625 C 88.65625 -33.015625 92.503906 -33.519531 96.140625 -34.53125 C 99.785156 -35.550781 102.453125 -36.570312 104.140625 -37.59375 L 106.4375 -39.125 L 121.671875 -7.875 C 120.484375 -7.03125 118.832031 -5.972656 116.71875 -4.703125 C 114.601562 -3.429688 109.773438 -1.695312 102.234375 0.5 C 94.703125 2.707031 86.617188 3.8125 77.984375 3.8125 C 58.847656 3.8125 42.039062 -2.914062 27.5625 -16.375 C 13.082031 -29.84375 5.84375 -45.976562 5.84375 -64.78125 C 5.84375 -83.738281 13.082031 -100.035156 27.5625 -113.671875 C 42.039062 -127.304688 58.847656 -134.125 77.984375 -134.125 C 86.617188 -134.125 94.578125 -133.109375 101.859375 -131.078125 C 109.140625 -129.046875 114.304688 -127.007812 117.359375 -124.96875 L 121.671875 -121.921875 L 106.4375 -91.1875 C 100.84375 -95.25 93.5625 -97.28125 84.59375 -97.28125 Z M 84.59375 -97.28125 "/></g></g></g><g fill="#000000" fill-opacity="1"><g transform="translate(1202.824344, 474.125511)"><g><path d="M 22.859375 -130.3125 L 22.859375 -178.828125 L 67.828125 -178.828125 L 67.828125 -130.3125 L 95.25 -130.3125 L 95.25 -96.015625 L 67.828125 -96.015625 L 67.828125 -54.609375 C 67.828125 -42.585938 71.210938 -36.578125 77.984375 -36.578125 C 79.671875 -36.578125 81.445312 -36.914062 83.3125 -37.59375 C 85.175781 -38.269531 86.617188 -38.945312 87.640625 -39.625 L 89.15625 -40.640625 L 100.34375 -4.3125 C 90.6875 1.101562 79.675781 3.8125 67.3125 3.8125 C 58.84375 3.8125 51.5625 2.332031 45.46875 -0.625 C 39.375 -3.59375 34.757812 -7.570312 31.625 -12.5625 C 28.488281 -17.5625 26.242188 -22.8125 24.890625 -28.3125 C 23.535156 -33.820312 22.859375 -39.710938 22.859375 -45.984375 L 22.859375 -96.015625 L 4.0625 -96.015625 L 4.0625 -130.3125 Z M 22.859375 -130.3125 "/></g></g></g></g></g></g></g></g></mask><clipPath id="c69ae08bd1"><path d="M 0 0 L 1440 0 L 1440 810 L 0 810 Z M 0 0 " clip-rule="nonzero"/></clipPath><clipPath id="f75bbab393"><rect x="0" width="1440" y="0" height="810"/></clipPath><clipPath id="a08e6407c4"><rect x="0" width="1440" y="0" height="810"/></clipPath><clipPath id="a4b9a53fff"><rect x="0" width="1440" y="0" height="810"/></clipPath><clipPath id="f2ee855efd"><path d="M 439.007812 328.265625 L 591 328.265625 L 591 547.464844 L 439.007812 547.464844 Z M 439.007812 328.265625 " clip-rule="nonzero"/></clipPath><clipPath id="5dcc469ec0"><rect x="0" width="733" y="0" height="48"/></clipPath><clipPath id="b708239ac5"><rect x="0" width="1440" y="0" height="810"/></clipPath></defs><rect x="-144" width="1728" fill="#ffffff" y="-80.999999" height="971.999992" fill-opacity="1"/><rect x="-144" width="1728" fill="#ffffff" y="-80.999999" height="971.999992" fill-opacity="1"/><g fill="#ffffff" fill-opacity="1"><g transform="translate(262.476925, 478.772876)"><g><path d="M 10.328125 -22.46875 L 10.328125 -17.75 L 19.5625 -17.75 L 19.5625 -11.640625 L 10.328125 -11.640625 L 10.328125 -6.4375 L 20.78125 -6.4375 L 20.78125 0 L 2.296875 0 L 2.296875 -28.90625 L 20.78125 -28.90625 L 20.78125 -22.46875 Z M 10.328125 -22.46875 "/></g></g></g><g fill="#ffffff" fill-opacity="1"><g transform="translate(284.940647, 478.772876)"><g><path d="M 29.0625 0 L 21.03125 0 L 10.328125 -16.15625 L 10.328125 0 L 2.296875 0 L 2.296875 -28.90625 L 10.328125 -28.90625 L 21.03125 -12.546875 L 21.03125 -28.90625 L 29.0625 -28.90625 Z M 29.0625 0 "/></g></g></g><g fill="#ffffff" fill-opacity="1"><g transform="translate(316.299677, 478.772876)"><g><path d="M 24.0625 -28.90625 L 24.0625 -22.515625 L 16.359375 -22.515625 L 16.359375 0 L 8.328125 0 L 8.328125 -22.515625 L 0.703125 -22.515625 L 0.703125 -28.90625 Z M 24.0625 -28.90625 "/></g></g></g><g fill="#ffffff" fill-opacity="1"><g transform="translate(341.058968, 478.772876)"><g><path d="M 1.3125 -14.515625 C 1.3125 -17.359375 1.90625 -19.890625 3.09375 -22.109375 C 4.28125 -24.335938 5.96875 -26.070312 8.15625 -27.3125 C 10.34375 -28.5625 12.859375 -29.1875 15.703125 -29.1875 C 19.304688 -29.1875 22.335938 -28.222656 24.796875 -26.296875 C 27.265625 -24.367188 28.851562 -21.753906 29.5625 -18.453125 L 20.90625 -18.453125 C 20.382812 -19.546875 19.664062 -20.378906 18.75 -20.953125 C 17.84375 -21.523438 16.785156 -21.8125 15.578125 -21.8125 C 13.722656 -21.8125 12.238281 -21.144531 11.125 -19.8125 C 10.019531 -18.488281 9.46875 -16.722656 9.46875 -14.515625 C 9.46875 -12.273438 10.019531 -10.488281 11.125 -9.15625 C 12.238281 -7.832031 13.722656 -7.171875 15.578125 -7.171875 C 16.785156 -7.171875 17.84375 -7.457031 18.75 -8.03125 C 19.664062 -8.601562 20.382812 -9.4375 20.90625 -10.53125 L 29.5625 -10.53125 C 28.851562 -7.226562 27.265625 -4.613281 24.796875 -2.6875 C 22.335938 -0.757812 19.304688 0.203125 15.703125 0.203125 C 12.859375 0.203125 10.34375 -0.414062 8.15625 -1.65625 C 5.96875 -2.90625 4.28125 -4.640625 3.09375 -6.859375 C 1.90625 -9.085938 1.3125 -11.640625 1.3125 -14.515625 Z M 1.3125 -14.515625 "/></g></g></g><g fill="#ffffff" fill-opacity="1"><g transform="translate(372.131049, 478.772876)"><g/></g></g><g fill="#ffffff" fill-opacity="1"><g transform="translate(379.960558, 478.772876)"><g><path d="M 36.03125 -28.90625 L 36.03125 0 L 28 0 L 28 -15.953125 L 22.546875 0 L 15.828125 0 L 10.328125 -16.078125 L 10.328125 0 L 2.296875 0 L 2.296875 -28.90625 L 12.015625 -28.90625 L 19.265625 -10.125 L 26.359375 -28.90625 Z M 36.03125 -28.90625 "/></g></g></g><g fill="#ffffff" fill-opacity="1"><g transform="translate(418.288261, 478.772876)"><g><path d="M 10.328125 -22.46875 L 10.328125 -17.75 L 19.5625 -17.75 L 19.5625 -11.640625 L 10.328125 -11.640625 L 10.328125 -6.4375 L 20.78125 -6.4375 L 20.78125 0 L 2.296875 0 L 2.296875 -28.90625 L 20.78125 -28.90625 L 20.78125 -22.46875 Z M 10.328125 -22.46875 "/></g></g></g><g fill="#ffffff" fill-opacity="1"><g transform="translate(440.751983, 478.772876)"><g><path d="M 29.0625 0 L 21.03125 0 L 10.328125 -16.15625 L 10.328125 0 L 2.296875 0 L 2.296875 -28.90625 L 10.328125 -28.90625 L 21.03125 -12.546875 L 21.03125 -28.90625 L 29.0625 -28.90625 Z M 29.0625 0 "/></g></g></g><g fill="#ffffff" fill-opacity="1"><g transform="translate(472.111024, 478.772876)"><g><path d="M 24.0625 -28.90625 L 24.0625 -22.515625 L 16.359375 -22.515625 L 16.359375 0 L 8.328125 0 L 8.328125 -22.515625 L 0.703125 -22.515625 L 0.703125 -28.90625 Z M 24.0625 -28.90625 "/></g></g></g><g fill="#ffffff" fill-opacity="1"><g transform="translate(496.870315, 478.772876)"><g><path d="M 16.15625 0.28125 C 13.445312 0.28125 10.957031 -0.351562 8.6875 -1.625 C 6.414062 -2.894531 4.617188 -4.65625 3.296875 -6.90625 C 1.972656 -9.164062 1.3125 -11.71875 1.3125 -14.5625 C 1.3125 -17.394531 1.972656 -19.9375 3.296875 -22.1875 C 4.617188 -24.445312 6.414062 -26.207031 8.6875 -27.46875 C 10.957031 -28.726562 13.445312 -29.359375 16.15625 -29.359375 C 18.882812 -29.359375 21.375 -28.726562 23.625 -27.46875 C 25.882812 -26.207031 27.671875 -24.445312 28.984375 -22.1875 C 30.296875 -19.9375 30.953125 -17.394531 30.953125 -14.5625 C 30.953125 -11.71875 30.296875 -9.164062 28.984375 -6.90625 C 27.671875 -4.65625 25.878906 -2.894531 23.609375 -1.625 C 21.347656 -0.351562 18.863281 0.28125 16.15625 0.28125 Z M 16.15625 -7.171875 C 18.207031 -7.171875 19.828125 -7.835938 21.015625 -9.171875 C 22.203125 -10.515625 22.796875 -12.3125 22.796875 -14.5625 C 22.796875 -16.851562 22.203125 -18.660156 21.015625 -19.984375 C 19.828125 -21.304688 18.207031 -21.96875 16.15625 -21.96875 C 14.070312 -21.96875 12.441406 -21.304688 11.265625 -19.984375 C 10.097656 -18.660156 9.515625 -16.851562 9.515625 -14.5625 C 9.515625 -12.289062 10.097656 -10.488281 11.265625 -9.15625 C 12.441406 -7.832031 14.070312 -7.171875 16.15625 -7.171875 Z M 16.15625 -7.171875 "/></g></g></g><g fill="#ffffff" fill-opacity="1"><g transform="translate(529.131162, 478.772876)"><g><path d="M 16.9375 0 L 11.1875 -10.65625 L 10.328125 -10.65625 L 10.328125 0 L 2.296875 0 L 2.296875 -28.90625 L 14.96875 -28.90625 C 17.289062 -28.90625 19.253906 -28.5 20.859375 -27.6875 C 22.472656 -26.882812 23.691406 -25.78125 24.515625 -24.375 C 25.335938 -22.96875 25.75 -21.390625 25.75 -19.640625 C 25.75 -17.671875 25.207031 -15.941406 24.125 -14.453125 C 23.050781 -12.960938 21.472656 -11.90625 19.390625 -11.28125 L 25.90625 0 Z M 10.328125 -16.15625 L 14.3125 -16.15625 C 15.40625 -16.15625 16.222656 -16.414062 16.765625 -16.9375 C 17.316406 -17.457031 17.59375 -18.207031 17.59375 -19.1875 C 17.59375 -20.113281 17.3125 -20.84375 16.75 -21.375 C 16.1875 -21.914062 15.375 -22.1875 14.3125 -22.1875 L 10.328125 -22.1875 Z M 10.328125 -16.15625 "/></g></g></g><g fill="#ffffff" fill-opacity="1"><g transform="translate(556.227017, 478.772876)"><g><path d="M 13.203125 0.28125 C 9.835938 0.28125 7.078125 -0.515625 4.921875 -2.109375 C 2.765625 -3.710938 1.601562 -6.003906 1.4375 -8.984375 L 10 -8.984375 C 10.082031 -7.972656 10.382812 -7.234375 10.90625 -6.765625 C 11.425781 -6.296875 12.097656 -6.0625 12.921875 -6.0625 C 13.648438 -6.0625 14.253906 -6.242188 14.734375 -6.609375 C 15.210938 -6.984375 15.453125 -7.5 15.453125 -8.15625 C 15.453125 -9.007812 15.054688 -9.664062 14.265625 -10.125 C 13.472656 -10.59375 12.1875 -11.113281 10.40625 -11.6875 C 8.519531 -12.3125 6.992188 -12.914062 5.828125 -13.5 C 4.671875 -14.09375 3.660156 -14.957031 2.796875 -16.09375 C 1.941406 -17.226562 1.515625 -18.710938 1.515625 -20.546875 C 1.515625 -22.398438 1.976562 -23.988281 2.90625 -25.3125 C 3.84375 -26.644531 5.128906 -27.648438 6.765625 -28.328125 C 8.398438 -29.015625 10.257812 -29.359375 12.34375 -29.359375 C 15.707031 -29.359375 18.390625 -28.570312 20.390625 -27 C 22.398438 -25.425781 23.472656 -23.21875 23.609375 -20.375 L 14.890625 -20.375 C 14.859375 -21.25 14.585938 -21.90625 14.078125 -22.34375 C 13.578125 -22.78125 12.929688 -23 12.140625 -23 C 11.535156 -23 11.039062 -22.820312 10.65625 -22.46875 C 10.28125 -22.113281 10.09375 -21.609375 10.09375 -20.953125 C 10.09375 -20.398438 10.300781 -19.925781 10.71875 -19.53125 C 11.144531 -19.132812 11.671875 -18.789062 12.296875 -18.5 C 12.929688 -18.21875 13.863281 -17.859375 15.09375 -17.421875 C 16.914062 -16.796875 18.421875 -16.175781 19.609375 -15.5625 C 20.804688 -14.945312 21.832031 -14.082031 22.6875 -12.96875 C 23.550781 -11.863281 23.984375 -10.46875 23.984375 -8.78125 C 23.984375 -7.050781 23.550781 -5.503906 22.6875 -4.140625 C 21.832031 -2.773438 20.585938 -1.695312 18.953125 -0.90625 C 17.328125 -0.113281 15.410156 0.28125 13.203125 0.28125 Z M 13.203125 0.28125 "/></g></g></g><g fill="#ffffff" fill-opacity="1"><g transform="translate(581.642169, 478.772876)"><g><path d="M 28.171875 -28.90625 L 28.171875 0 L 20.125 0 L 20.125 -11.609375 L 10.328125 -11.609375 L 10.328125 0 L 2.296875 0 L 2.296875 -28.90625 L 10.328125 -28.90625 L 10.328125 -18.046875 L 20.125 -18.046875 L 20.125 -28.90625 Z M 28.171875 -28.90625 "/></g></g></g><g fill="#ffffff" fill-opacity="1"><g transform="translate(612.099359, 478.772876)"><g><path d="M 10.328125 -28.90625 L 10.328125 0 L 2.296875 0 L 2.296875 -28.90625 Z M 10.328125 -28.90625 "/></g></g></g><g fill="#ffffff" fill-opacity="1"><g transform="translate(624.724984, 478.772876)"><g><path d="M 25.140625 -19.265625 C 25.140625 -17.515625 24.734375 -15.921875 23.921875 -14.484375 C 23.117188 -13.054688 21.898438 -11.910156 20.265625 -11.046875 C 18.640625 -10.191406 16.65625 -9.765625 14.3125 -9.765625 L 10.328125 -9.765625 L 10.328125 0 L 2.296875 0 L 2.296875 -28.90625 L 14.3125 -28.90625 C 16.632812 -28.90625 18.609375 -28.492188 20.234375 -27.671875 C 21.859375 -26.847656 23.082031 -25.710938 23.90625 -24.265625 C 24.726562 -22.816406 25.140625 -21.148438 25.140625 -19.265625 Z M 13.53125 -16.15625 C 15.800781 -16.15625 16.9375 -17.191406 16.9375 -19.265625 C 16.9375 -21.367188 15.800781 -22.421875 13.53125 -22.421875 L 10.328125 -22.421875 L 10.328125 -16.15625 Z M 13.53125 -16.15625 "/></g></g></g><g fill="#ffffff" fill-opacity="1"><g transform="translate(650.795997, 478.772876)"><g/></g></g><g fill="#ffffff" fill-opacity="1"><g transform="translate(658.625495, 478.772876)"><g><path d="M 25.140625 -19.265625 C 25.140625 -17.515625 24.734375 -15.921875 23.921875 -14.484375 C 23.117188 -13.054688 21.898438 -11.910156 20.265625 -11.046875 C 18.640625 -10.191406 16.65625 -9.765625 14.3125 -9.765625 L 10.328125 -9.765625 L 10.328125 0 L 2.296875 0 L 2.296875 -28.90625 L 14.3125 -28.90625 C 16.632812 -28.90625 18.609375 -28.492188 20.234375 -27.671875 C 21.859375 -26.847656 23.082031 -25.710938 23.90625 -24.265625 C 24.726562 -22.816406 25.140625 -21.148438 25.140625 -19.265625 Z M 13.53125 -16.15625 C 15.800781 -16.15625 16.9375 -17.191406 16.9375 -19.265625 C 16.9375 -21.367188 15.800781 -22.421875 13.53125 -22.421875 L 10.328125 -22.421875 L 10.328125 -16.15625 Z M 13.53125 -16.15625 "/></g></g></g><g fill="#ffffff" fill-opacity="1"><g transform="translate(684.696554, 478.772876)"><g><path d="M 16.9375 0 L 11.1875 -10.65625 L 10.328125 -10.65625 L 10.328125 0 L 2.296875 0 L 2.296875 -28.90625 L 14.96875 -28.90625 C 17.289062 -28.90625 19.253906 -28.5 20.859375 -27.6875 C 22.472656 -26.882812 23.691406 -25.78125 24.515625 -24.375 C 25.335938 -22.96875 25.75 -21.390625 25.75 -19.640625 C 25.75 -17.671875 25.207031 -15.941406 24.125 -14.453125 C 23.050781 -12.960938 21.472656 -11.90625 19.390625 -11.28125 L 25.90625 0 Z M 10.328125 -16.15625 L 14.3125 -16.15625 C 15.40625 -16.15625 16.222656 -16.414062 16.765625 -16.9375 C 17.316406 -17.457031 17.59375 -18.207031 17.59375 -19.1875 C 17.59375 -20.113281 17.3125 -20.84375 16.75 -21.375 C 16.1875 -21.914062 15.375 -22.1875 14.3125 -22.1875 L 10.328125 -22.1875 Z M 10.328125 -16.15625 "/></g></g></g><g fill="#ffffff" fill-opacity="1"><g transform="translate(711.792409, 478.772876)"><g><path d="M 16.15625 0.28125 C 13.445312 0.28125 10.957031 -0.351562 8.6875 -1.625 C 6.414062 -2.894531 4.617188 -4.65625 3.296875 -6.90625 C 1.972656 -9.164062 1.3125 -11.71875 1.3125 -14.5625 C 1.3125 -17.394531 1.972656 -19.9375 3.296875 -22.1875 C 4.617188 -24.445312 6.414062 -26.207031 8.6875 -27.46875 C 10.957031 -28.726562 13.445312 -29.359375 16.15625 -29.359375 C 18.882812 -29.359375 21.375 -28.726562 23.625 -27.46875 C 25.882812 -26.207031 27.671875 -24.445312 28.984375 -22.1875 C 30.296875 -19.9375 30.953125 -17.394531 30.953125 -14.5625 C 30.953125 -11.71875 30.296875 -9.164062 28.984375 -6.90625 C 27.671875 -4.65625 25.878906 -2.894531 23.609375 -1.625 C 21.347656 -0.351562 18.863281 0.28125 16.15625 0.28125 Z M 16.15625 -7.171875 C 18.207031 -7.171875 19.828125 -7.835938 21.015625 -9.171875 C 22.203125 -10.515625 22.796875 -12.3125 22.796875 -14.5625 C 22.796875 -16.851562 22.203125 -18.660156 21.015625 -19.984375 C 19.828125 -21.304688 18.207031 -21.96875 16.15625 -21.96875 C 14.070312 -21.96875 12.441406 -21.304688 11.265625 -19.984375 C 10.097656 -18.660156 9.515625 -16.851562 9.515625 -14.5625 C 9.515625 -12.289062 10.097656 -10.488281 11.265625 -9.15625 C 12.441406 -7.832031 14.070312 -7.171875 16.15625 -7.171875 Z M 16.15625 -7.171875 "/></g></g></g><g fill="#ffffff" fill-opacity="1"><g transform="translate(744.053256, 478.772876)"><g><path d="M 20.75 -19.390625 C 20.28125 -20.160156 19.640625 -20.75 18.828125 -21.15625 C 18.023438 -21.5625 17.078125 -21.765625 15.984375 -21.765625 C 13.960938 -21.765625 12.367188 -21.109375 11.203125 -19.796875 C 10.046875 -18.484375 9.46875 -16.722656 9.46875 -14.515625 C 9.46875 -12.023438 10.085938 -10.128906 11.328125 -8.828125 C 12.578125 -7.535156 14.390625 -6.890625 16.765625 -6.890625 C 19.578125 -6.890625 21.585938 -8.160156 22.796875 -10.703125 L 14.71875 -10.703125 L 14.71875 -16.484375 L 29.71875 -16.484375 L 29.71875 -8.6875 C 29.09375 -7.15625 28.171875 -5.71875 26.953125 -4.375 C 25.742188 -3.039062 24.207031 -1.941406 22.34375 -1.078125 C 20.488281 -0.222656 18.367188 0.203125 15.984375 0.203125 C 13.085938 0.203125 10.523438 -0.414062 8.296875 -1.65625 C 6.078125 -2.90625 4.359375 -4.640625 3.140625 -6.859375 C 1.921875 -9.085938 1.3125 -11.640625 1.3125 -14.515625 C 1.3125 -17.359375 1.921875 -19.890625 3.140625 -22.109375 C 4.359375 -24.335938 6.070312 -26.070312 8.28125 -27.3125 C 10.5 -28.5625 13.054688 -29.1875 15.953125 -29.1875 C 19.585938 -29.1875 22.59375 -28.3125 24.96875 -26.5625 C 27.34375 -24.8125 28.816406 -22.421875 29.390625 -19.390625 Z M 20.75 -19.390625 "/></g></g></g><g fill="#ffffff" fill-opacity="1"><g transform="translate(775.084367, 478.772876)"><g><path d="M 16.9375 0 L 11.1875 -10.65625 L 10.328125 -10.65625 L 10.328125 0 L 2.296875 0 L 2.296875 -28.90625 L 14.96875 -28.90625 C 17.289062 -28.90625 19.253906 -28.5 20.859375 -27.6875 C 22.472656 -26.882812 23.691406 -25.78125 24.515625 -24.375 C 25.335938 -22.96875 25.75 -21.390625 25.75 -19.640625 C 25.75 -17.671875 25.207031 -15.941406 24.125 -14.453125 C 23.050781 -12.960938 21.472656 -11.90625 19.390625 -11.28125 L 25.90625 0 Z M 10.328125 -16.15625 L 14.3125 -16.15625 C 15.40625 -16.15625 16.222656 -16.414062 16.765625 -16.9375 C 17.316406 -17.457031 17.59375 -18.207031 17.59375 -19.1875 C 17.59375 -20.113281 17.3125 -20.84375 16.75 -21.375 C 16.1875 -21.914062 15.375 -22.1875 14.3125 -22.1875 L 10.328125 -22.1875 Z M 10.328125 -16.15625 "/></g></g></g><g fill="#ffffff" fill-opacity="1"><g transform="translate(802.180176, 478.772876)"><g><path d="M 20.578125 -4.71875 L 10.328125 -4.71875 L 8.78125 0 L 0.328125 0 L 10.859375 -28.90625 L 20.125 -28.90625 L 30.625 0 L 22.140625 0 Z M 18.578125 -10.859375 L 15.453125 -20.21875 L 12.375 -10.859375 Z M 18.578125 -10.859375 "/></g></g></g><g fill="#ffffff" fill-opacity="1"><g transform="translate(833.129302, 478.772876)"><g><path d="M 36.03125 -28.90625 L 36.03125 0 L 28 0 L 28 -15.953125 L 22.546875 0 L 15.828125 0 L 10.328125 -16.078125 L 10.328125 0 L 2.296875 0 L 2.296875 -28.90625 L 12.015625 -28.90625 L 19.265625 -10.125 L 26.359375 -28.90625 Z M 36.03125 -28.90625 "/></g></g></g><g fill="#ffffff" fill-opacity="1"><g transform="translate(871.457028, 478.772876)"><g><path d="M 36.03125 -28.90625 L 36.03125 0 L 28 0 L 28 -15.953125 L 22.546875 0 L 15.828125 0 L 10.328125 -16.078125 L 10.328125 0 L 2.296875 0 L 2.296875 -28.90625 L 12.015625 -28.90625 L 19.265625 -10.125 L 26.359375 -28.90625 Z M 36.03125 -28.90625 "/></g></g></g><g fill="#ffffff" fill-opacity="1"><g transform="translate(909.784709, 478.772876)"><g><path d="M 10.328125 -22.46875 L 10.328125 -17.75 L 19.5625 -17.75 L 19.5625 -11.640625 L 10.328125 -11.640625 L 10.328125 -6.4375 L 20.78125 -6.4375 L 20.78125 0 L 2.296875 0 L 2.296875 -28.90625 L 20.78125 -28.90625 L 20.78125 -22.46875 Z M 10.328125 -22.46875 "/></g></g></g><g fill="#ffffff" fill-opacity="1"><g transform="translate(932.248453, 478.772876)"><g/></g></g><g fill="#ffffff" fill-opacity="1"><g transform="translate(940.077951, 478.772876)"><g><path d="M 20.75 -19.390625 C 20.28125 -20.160156 19.640625 -20.75 18.828125 -21.15625 C 18.023438 -21.5625 17.078125 -21.765625 15.984375 -21.765625 C 13.960938 -21.765625 12.367188 -21.109375 11.203125 -19.796875 C 10.046875 -18.484375 9.46875 -16.722656 9.46875 -14.515625 C 9.46875 -12.023438 10.085938 -10.128906 11.328125 -8.828125 C 12.578125 -7.535156 14.390625 -6.890625 16.765625 -6.890625 C 19.578125 -6.890625 21.585938 -8.160156 22.796875 -10.703125 L 14.71875 -10.703125 L 14.71875 -16.484375 L 29.71875 -16.484375 L 29.71875 -8.6875 C 29.09375 -7.15625 28.171875 -5.71875 26.953125 -4.375 C 25.742188 -3.039062 24.207031 -1.941406 22.34375 -1.078125 C 20.488281 -0.222656 18.367188 0.203125 15.984375 0.203125 C 13.085938 0.203125 10.523438 -0.414062 8.296875 -1.65625 C 6.078125 -2.90625 4.359375 -4.640625 3.140625 -6.859375 C 1.921875 -9.085938 1.3125 -11.640625 1.3125 -14.515625 C 1.3125 -17.359375 1.921875 -19.890625 3.140625 -22.109375 C 4.359375 -24.335938 6.070312 -26.070312 8.28125 -27.3125 C 10.5 -28.5625 13.054688 -29.1875 15.953125 -29.1875 C 19.585938 -29.1875 22.59375 -28.3125 24.96875 -26.5625 C 27.34375 -24.8125 28.816406 -22.421875 29.390625 -19.390625 Z M 20.75 -19.390625 "/></g></g></g><g fill="#ffffff" fill-opacity="1"><g transform="translate(971.109062, 478.772876)"><g><path d="M 10.171875 -28.90625 L 10.171875 -12.140625 C 10.171875 -10.578125 10.53125 -9.367188 11.25 -8.515625 C 11.976562 -7.671875 13.082031 -7.25 14.5625 -7.25 C 16.03125 -7.25 17.140625 -7.679688 17.890625 -8.546875 C 18.648438 -9.410156 19.03125 -10.609375 19.03125 -12.140625 L 19.03125 -28.90625 L 27.0625 -28.90625 L 27.0625 -12.140625 C 27.0625 -9.484375 26.5 -7.21875 25.375 -5.34375 C 24.257812 -3.476562 22.738281 -2.070312 20.8125 -1.125 C 18.882812 -0.1875 16.742188 0.28125 14.390625 0.28125 C 12.035156 0.28125 9.9375 -0.1875 8.09375 -1.125 C 6.25 -2.070312 4.800781 -3.472656 3.75 -5.328125 C 2.695312 -7.191406 2.171875 -9.460938 2.171875 -12.140625 L 2.171875 -28.90625 Z M 10.171875 -28.90625 "/></g></g></g><g fill="#ffffff" fill-opacity="1"><g transform="translate(1000.295523, 478.772876)"><g><path d="M 10.328125 -28.90625 L 10.328125 0 L 2.296875 0 L 2.296875 -28.90625 Z M 10.328125 -28.90625 "/></g></g></g><g fill="#ffffff" fill-opacity="1"><g transform="translate(1012.921102, 478.772876)"><g><path d="M 13.734375 -28.90625 C 16.765625 -28.90625 19.421875 -28.296875 21.703125 -27.078125 C 23.992188 -25.859375 25.753906 -24.15625 26.984375 -21.96875 C 28.210938 -19.789062 28.828125 -17.289062 28.828125 -14.46875 C 28.828125 -11.6875 28.203125 -9.203125 26.953125 -7.015625 C 25.710938 -4.828125 23.953125 -3.109375 21.671875 -1.859375 C 19.390625 -0.617188 16.742188 0 13.734375 0 L 2.296875 0 L 2.296875 -28.90625 Z M 13.125 -7.09375 C 15.46875 -7.09375 17.304688 -7.734375 18.640625 -9.015625 C 19.984375 -10.304688 20.65625 -12.125 20.65625 -14.46875 C 20.65625 -16.851562 19.984375 -18.691406 18.640625 -19.984375 C 17.304688 -21.285156 15.46875 -21.9375 13.125 -21.9375 L 10.328125 -21.9375 L 10.328125 -7.09375 Z M 13.125 -7.09375 "/></g></g></g><g fill="#ffffff" fill-opacity="1"><g transform="translate(1043.050373, 478.772876)"><g><path d="M 10.328125 -22.46875 L 10.328125 -17.75 L 19.5625 -17.75 L 19.5625 -11.640625 L 10.328125 -11.640625 L 10.328125 -6.4375 L 20.78125 -6.4375 L 20.78125 0 L 2.296875 0 L 2.296875 -28.90625 L 20.78125 -28.90625 L 20.78125 -22.46875 Z M 10.328125 -22.46875 "/></g></g></g><g fill="#ffffff" fill-opacity="1"><g transform="translate(1065.514116, 478.772876)"><g><path d="M 10.328125 -6.15625 L 19.3125 -6.15625 L 19.3125 0 L 2.296875 0 L 2.296875 -28.90625 L 10.328125 -28.90625 Z M 10.328125 -6.15625 "/></g></g></g><g fill="#ffffff" fill-opacity="1"><g transform="translate(1085.641252, 478.772876)"><g><path d="M 10.328125 -28.90625 L 10.328125 0 L 2.296875 0 L 2.296875 -28.90625 Z M 10.328125 -28.90625 "/></g></g></g><g fill="#ffffff" fill-opacity="1"><g transform="translate(1098.266831, 478.772876)"><g><path d="M 29.0625 0 L 21.03125 0 L 10.328125 -16.15625 L 10.328125 0 L 2.296875 0 L 2.296875 -28.90625 L 10.328125 -28.90625 L 21.03125 -12.546875 L 21.03125 -28.90625 L 29.0625 -28.90625 Z M 29.0625 0 "/></g></g></g><g fill="#ffffff" fill-opacity="1"><g transform="translate(1129.62593, 478.772876)"><g><path d="M 10.328125 -22.46875 L 10.328125 -17.75 L 19.5625 -17.75 L 19.5625 -11.640625 L 10.328125 -11.640625 L 10.328125 -6.4375 L 20.78125 -6.4375 L 20.78125 0 L 2.296875 0 L 2.296875 -28.90625 L 20.78125 -28.90625 L 20.78125 -22.46875 Z M 10.328125 -22.46875 "/></g></g></g><g fill="#ffffff" fill-opacity="1"><g transform="translate(1152.089582, 478.772876)"><g><path d="M 13.203125 0.28125 C 9.835938 0.28125 7.078125 -0.515625 4.921875 -2.109375 C 2.765625 -3.710938 1.601562 -6.003906 1.4375 -8.984375 L 10 -8.984375 C 10.082031 -7.972656 10.382812 -7.234375 10.90625 -6.765625 C 11.425781 -6.296875 12.097656 -6.0625 12.921875 -6.0625 C 13.648438 -6.0625 14.253906 -6.242188 14.734375 -6.609375 C 15.210938 -6.984375 15.453125 -7.5 15.453125 -8.15625 C 15.453125 -9.007812 15.054688 -9.664062 14.265625 -10.125 C 13.472656 -10.59375 12.1875 -11.113281 10.40625 -11.6875 C 8.519531 -12.3125 6.992188 -12.914062 5.828125 -13.5 C 4.671875 -14.09375 3.660156 -14.957031 2.796875 -16.09375 C 1.941406 -17.226562 1.515625 -18.710938 1.515625 -20.546875 C 1.515625 -22.398438 1.976562 -23.988281 2.90625 -25.3125 C 3.84375 -26.644531 5.128906 -27.648438 6.765625 -28.328125 C 8.398438 -29.015625 10.257812 -29.359375 12.34375 -29.359375 C 15.707031 -29.359375 18.390625 -28.570312 20.390625 -27 C 22.398438 -25.425781 23.472656 -23.21875 23.609375 -20.375 L 14.890625 -20.375 C 14.859375 -21.25 14.585938 -21.90625 14.078125 -22.34375 C 13.578125 -22.78125 12.929688 -23 12.140625 -23 C 11.535156 -23 11.039062 -22.820312 10.65625 -22.46875 C 10.28125 -22.113281 10.09375 -21.609375 10.09375 -20.953125 C 10.09375 -20.398438 10.300781 -19.925781 10.71875 -19.53125 C 11.144531 -19.132812 11.671875 -18.789062 12.296875 -18.5 C 12.929688 -18.21875 13.863281 -17.859375 15.09375 -17.421875 C 16.914062 -16.796875 18.421875 -16.175781 19.609375 -15.5625 C 20.804688 -14.945312 21.832031 -14.082031 22.6875 -12.96875 C 23.550781 -11.863281 23.984375 -10.46875 23.984375 -8.78125 C 23.984375 -7.050781 23.550781 -5.503906 22.6875 -4.140625 C 21.832031 -2.773438 20.585938 -1.695312 18.953125 -0.90625 C 17.328125 -0.113281 15.410156 0.28125 13.203125 0.28125 Z M 13.203125 0.28125 "/></g></g></g><g clip-path="url(#3cc4c80d87)"><g clip-path="url(#6d9b39d9ed)"><g transform="matrix(1, 0, 0, 1, 0, 705)"><g clip-path="url(#152f40be7c)"><g clip-path="url(#b57f762248)"><g clip-path="url(#f378405bd4)"><path fill="#ffffff" d="M -28.246094 0.261719 L 1599.644531 0.261719 L 1599.644531 241.152344 L -28.246094 241.152344 Z M -28.246094 0.261719 " fill-opacity="1" fill-rule="nonzero"/></g></g></g></g></g></g><g clip-path="url(#67fe9c1fd9)"><g clip-path="url(#8ca35665db)"><path stroke-linecap="butt" transform="matrix(0.75, 0, 0, 0.75, -28.208813, 705.262833)" fill="none" stroke-linejoin="miter" d="M 16.997167 -0.00148503 L 2153.075262 -0.00148503 C 2157.580471 -0.00148503 2161.908596 1.790182 2165.096095 4.977682 C 2168.283595 8.165182 2170.075262 12.493306 2170.075262 16.998515 L 2170.075262 304.170386 C 2170.075262 308.680802 2168.283595 313.003719 2165.096095 316.191219 C 2161.908596 319.378719 2157.580471 321.170386 2153.075262 321.170386 L 16.997167 321.170386 C 12.491958 321.170386 8.169042 319.378719 4.981542 316.191219 C 1.788833 313.003719 0.00237513 308.680802 0.00237513 304.170386 L 0.00237513 16.998515 C 0.00237513 12.493306 1.788833 8.165182 4.981542 4.977682 C 8.169042 1.790182 12.491958 -0.00148503 16.997167 -0.00148503 Z M 16.997167 -0.00148503 " stroke="#fdfdfd" stroke-width="14" stroke-opacity="1" stroke-miterlimit="4"/></g></g><g clip-path="url(#e0a695a8c8)"><g clip-path="url(#12e3185f43)"><g transform="matrix(1, 0, 0, 1, 225, 167)"><g clip-path="url(#e308cb30cd)"><g clip-path="url(#937aa2400a)"><g clip-path="url(#9a76da6abe)"><path fill="#ffffff" d="M 0.921875 0.921875 L 988.949219 0.921875 L 988.949219 241.8125 L 0.921875 241.8125 Z M 0.921875 0.921875 " fill-opacity="1" fill-rule="nonzero"/></g></g></g></g></g></g><g clip-path="url(#ca9ba592dc)"><g clip-path="url(#a11ff14dc0)"><path stroke-linecap="butt" transform="matrix(0.75, 0, 0, 0.75, 225.941347, 167.922388)" fill="none" stroke-linejoin="miter" d="M 17.000079 -0.000684469 L 1300.479228 -0.000684469 C 1304.989645 -0.000684469 1309.312561 1.790982 1312.500061 4.978482 C 1315.687561 8.165982 1317.479228 12.488899 1317.479228 16.999315 L 1317.479228 304.171186 C 1317.479228 308.681603 1315.687561 313.00452 1312.500061 316.19202 C 1309.312561 319.379519 1304.989645 321.171186 1300.479228 321.171186 L 17.000079 321.171186 C 12.489662 321.171186 8.166746 319.379519 4.979246 316.19202 C 1.791746 313.00452 0.0000791928 308.681603 0.0000791928 304.171186 L 0.0000791928 16.999315 C 0.0000791928 12.488899 1.791746 8.165982 4.979246 4.978482 C 8.166746 1.790982 12.489662 -0.000684469 17.000079 -0.000684469 Z M 17.000079 -0.000684469 " stroke="#fdfdfd" stroke-width="14" stroke-opacity="1" stroke-miterlimit="4"/></g></g><g transform="matrix(1, 0, 0, 1, 0, 0.000000000000039746)"><g clip-path="url(#b708239ac5)"><g transform="matrix(1, 0, 0, 1, 0, 0.000000000000039746)"><g clip-path="url(#a4b9a53fff)"><g fill="#000000" fill-opacity="0.4"><g transform="translate(51.138073, 474.125511)"><g><path d="M 147.078125 -58.9375 L 52.578125 -58.9375 C 52.578125 -49.789062 55.539062 -43.015625 61.46875 -38.609375 C 67.394531 -34.203125 73.832031 -32 80.78125 -32 C 88.0625 -32 93.816406 -32.972656 98.046875 -34.921875 C 102.285156 -36.867188 107.113281 -40.722656 112.53125 -46.484375 L 145.046875 -30.234375 C 131.492188 -7.535156 108.96875 3.8125 77.46875 3.8125 C 57.832031 3.8125 40.984375 -2.914062 26.921875 -16.375 C 12.867188 -29.84375 5.84375 -46.0625 5.84375 -65.03125 C 5.84375 -84 12.867188 -100.253906 26.921875 -113.796875 C 40.984375 -127.347656 57.832031 -134.125 77.46875 -134.125 C 98.132812 -134.125 114.941406 -128.148438 127.890625 -116.203125 C 140.847656 -104.265625 147.328125 -87.207031 147.328125 -65.03125 C 147.328125 -61.976562 147.242188 -59.945312 147.078125 -58.9375 Z M 53.84375 -83.828125 L 103.390625 -83.828125 C 102.367188 -90.597656 99.695312 -95.800781 95.375 -99.4375 C 91.0625 -103.082031 85.519531 -104.90625 78.75 -104.90625 C 71.289062 -104.90625 65.359375 -102.957031 60.953125 -99.0625 C 56.554688 -95.164062 54.1875 -90.085938 53.84375 -83.828125 Z M 53.84375 -83.828125 "/></g></g></g><g fill="#000000" fill-opacity="0.4"><g transform="translate(205.321075, 474.125511)"><g><path d="M 15.234375 -92.96875 L 97.03125 -92.96875 L 97.03125 -54.109375 L 15.234375 -54.109375 Z M 15.234375 -92.96875 "/></g></g></g><g fill="#000000" fill-opacity="0.4"><g transform="translate(318.608749, 474.125511)"><g><path d="M 84.59375 -97.28125 C 76.125 -97.28125 68.835938 -94.144531 62.734375 -87.875 C 56.640625 -81.613281 53.59375 -74.082031 53.59375 -65.28125 C 53.59375 -56.300781 56.640625 -48.675781 62.734375 -42.40625 C 68.835938 -36.144531 76.125 -33.015625 84.59375 -33.015625 C 88.65625 -33.015625 92.503906 -33.519531 96.140625 -34.53125 C 99.785156 -35.550781 102.453125 -36.570312 104.140625 -37.59375 L 106.4375 -39.125 L 121.671875 -7.875 C 120.484375 -7.03125 118.832031 -5.972656 116.71875 -4.703125 C 114.601562 -3.429688 109.773438 -1.695312 102.234375 0.5 C 94.703125 2.707031 86.617188 3.8125 77.984375 3.8125 C 58.847656 3.8125 42.039062 -2.914062 27.5625 -16.375 C 13.082031 -29.84375 5.84375 -45.976562 5.84375 -64.78125 C 5.84375 -83.738281 13.082031 -100.035156 27.5625 -113.671875 C 42.039062 -127.304688 58.847656 -134.125 77.984375 -134.125 C 86.617188 -134.125 94.578125 -133.109375 101.859375 -131.078125 C 109.140625 -129.046875 114.304688 -127.007812 117.359375 -124.96875 L 121.671875 -121.921875 L 106.4375 -91.1875 C 100.84375 -95.25 93.5625 -97.28125 84.59375 -97.28125 Z M 84.59375 -97.28125 "/></g></g></g><g fill="#000000" fill-opacity="0.4"><g transform="translate(444.352008, 474.125511)"><g/></g></g><g fill="#000000" fill-opacity="0.4"><g transform="translate(514.712331, 474.125511)"><g/></g></g><g fill="#000000" fill-opacity="0.4"><g transform="translate(585.076262, 474.125511)"><g><path d="M 15.234375 0 L 15.234375 -130.3125 L 60.203125 -130.3125 L 60.203125 -116.59375 L 60.703125 -116.59375 C 72.390625 -128.28125 84.835938 -134.125 98.046875 -134.125 C 104.484375 -134.125 110.875 -133.273438 117.21875 -131.578125 C 123.570312 -129.890625 129.671875 -127.265625 135.515625 -123.703125 C 141.359375 -120.148438 146.097656 -115.113281 149.734375 -108.59375 C 153.378906 -102.070312 155.203125 -94.492188 155.203125 -85.859375 L 155.203125 0 L 110.25 0 L 110.25 -73.671875 C 110.25 -80.441406 108.085938 -86.363281 103.765625 -91.4375 C 99.441406 -96.519531 93.8125 -99.0625 86.875 -99.0625 C 80.101562 -99.0625 73.960938 -96.4375 68.453125 -91.1875 C 62.953125 -85.9375 60.203125 -80.097656 60.203125 -73.671875 L 60.203125 0 Z M 15.234375 0 "/></g></g></g><g fill="#000000" fill-opacity="0.4"><g transform="translate(753.991752, 474.125511)"><g><path d="M 15.234375 0 L 15.234375 -130.3125 L 60.203125 -130.3125 L 60.203125 -116.59375 L 60.703125 -116.59375 C 72.390625 -128.28125 84.835938 -134.125 98.046875 -134.125 C 104.484375 -134.125 110.875 -133.273438 117.21875 -131.578125 C 123.570312 -129.890625 129.671875 -127.265625 135.515625 -123.703125 C 141.359375 -120.148438 146.097656 -115.113281 149.734375 -108.59375 C 153.378906 -102.070312 155.203125 -94.492188 155.203125 -85.859375 L 155.203125 0 L 110.25 0 L 110.25 -73.671875 C 110.25 -80.441406 108.085938 -86.363281 103.765625 -91.4375 C 99.441406 -96.519531 93.8125 -99.0625 86.875 -99.0625 C 80.101562 -99.0625 73.960938 -96.4375 68.453125 -91.1875 C 62.953125 -85.9375 60.203125 -80.097656 60.203125 -73.671875 L 60.203125 0 Z M 15.234375 0 "/></g></g></g><g fill="#000000" fill-opacity="0.4"><g transform="translate(922.907241, 474.125511)"><g><path d="M 147.078125 -58.9375 L 52.578125 -58.9375 C 52.578125 -49.789062 55.539062 -43.015625 61.46875 -38.609375 C 67.394531 -34.203125 73.832031 -32 80.78125 -32 C 88.0625 -32 93.816406 -32.972656 98.046875 -34.921875 C 102.285156 -36.867188 107.113281 -40.722656 112.53125 -46.484375 L 145.046875 -30.234375 C 131.492188 -7.535156 108.96875 3.8125 77.46875 3.8125 C 57.832031 3.8125 40.984375 -2.914062 26.921875 -16.375 C 12.867188 -29.84375 5.84375 -46.0625 5.84375 -65.03125 C 5.84375 -84 12.867188 -100.253906 26.921875 -113.796875 C 40.984375 -127.347656 57.832031 -134.125 77.46875 -134.125 C 98.132812 -134.125 114.941406 -128.148438 127.890625 -116.203125 C 140.847656 -104.265625 147.328125 -87.207031 147.328125 -65.03125 C 147.328125 -61.976562 147.242188 -59.945312 147.078125 -58.9375 Z M 53.84375 -83.828125 L 103.390625 -83.828125 C 102.367188 -90.597656 99.695312 -95.800781 95.375 -99.4375 C 91.0625 -103.082031 85.519531 -104.90625 78.75 -104.90625 C 71.289062 -104.90625 65.359375 -102.957031 60.953125 -99.0625 C 56.554688 -95.164062 54.1875 -90.085938 53.84375 -83.828125 Z M 53.84375 -83.828125 "/></g></g></g><g fill="#000000" fill-opacity="0.4"><g transform="translate(1077.090258, 474.125511)"><g><path d="M 84.59375 -97.28125 C 76.125 -97.28125 68.835938 -94.144531 62.734375 -87.875 C 56.640625 -81.613281 53.59375 -74.082031 53.59375 -65.28125 C 53.59375 -56.300781 56.640625 -48.675781 62.734375 -42.40625 C 68.835938 -36.144531 76.125 -33.015625 84.59375 -33.015625 C 88.65625 -33.015625 92.503906 -33.519531 96.140625 -34.53125 C 99.785156 -35.550781 102.453125 -36.570312 104.140625 -37.59375 L 106.4375 -39.125 L 121.671875 -7.875 C 120.484375 -7.03125 118.832031 -5.972656 116.71875 -4.703125 C 114.601562 -3.429688 109.773438 -1.695312 102.234375 0.5 C 94.703125 2.707031 86.617188 3.8125 77.984375 3.8125 C 58.847656 3.8125 42.039062 -2.914062 27.5625 -16.375 C 13.082031 -29.84375 5.84375 -45.976562 5.84375 -64.78125 C 5.84375 -83.738281 13.082031 -100.035156 27.5625 -113.671875 C 42.039062 -127.304688 58.847656 -134.125 77.984375 -134.125 C 86.617188 -134.125 94.578125 -133.109375 101.859375 -131.078125 C 109.140625 -129.046875 114.304688 -127.007812 117.359375 -124.96875 L 121.671875 -121.921875 L 106.4375 -91.1875 C 100.84375 -95.25 93.5625 -97.28125 84.59375 -97.28125 Z M 84.59375 -97.28125 "/></g></g></g><g fill="#000000" fill-opacity="0.4"><g transform="translate(1202.824344, 474.125511)"><g><path d="M 22.859375 -130.3125 L 22.859375 -178.828125 L 67.828125 -178.828125 L 67.828125 -130.3125 L 95.25 -130.3125 L 95.25 -96.015625 L 67.828125 -96.015625 L 67.828125 -54.609375 C 67.828125 -42.585938 71.210938 -36.578125 77.984375 -36.578125 C 79.671875 -36.578125 81.445312 -36.914062 83.3125 -37.59375 C 85.175781 -38.269531 86.617188 -38.945312 87.640625 -39.625 L 89.15625 -40.640625 L 100.34375 -4.3125 C 90.6875 1.101562 79.675781 3.8125 67.3125 3.8125 C 58.84375 3.8125 51.5625 2.332031 45.46875 -0.625 C 39.375 -3.59375 34.757812 -7.570312 31.625 -12.5625 C 28.488281 -17.5625 26.242188 -22.8125 24.890625 -28.3125 C 23.535156 -33.820312 22.859375 -39.710938 22.859375 -45.984375 L 22.859375 -96.015625 L 4.0625 -96.015625 L 4.0625 -130.3125 Z M 22.859375 -130.3125 "/></g></g></g><g transform="matrix(1, 0, 0, 1, 0, 0.000000000000039746)"><g clip-path="url(#a08e6407c4)"><g mask="url(#fd19cd86d4)"><g transform="matrix(1, 0, 0, 1, 0, 0.000000000000039746)"><g clip-path="url(#f75bbab393)"><g clip-path="url(#c69ae08bd1)"><rect x="-1071.5904" fill="url(#c60bb18dee)" width="3583.1808" y="-602.769595" height="2015.539183"/></g></g></g></g></g></g></g></g><g clip-path="url(#f2ee855efd)"><path fill="#f6b900" d="M 492.265625 529.382812 C 494 540.34375 503.507812 548.726562 514.984375 548.726562 C 526.460938 548.726562 535.96875 540.34375 537.703125 529.382812 C 537.84375 528.445312 537.609375 527.554688 537 526.804688 C 536.390625 526.058594 535.546875 525.683594 534.613281 525.683594 L 495.40625 525.683594 C 494.46875 525.683594 493.625 526.058594 493.015625 526.804688 C 492.359375 527.554688 492.125 528.398438 492.265625 529.382812 Z M 540 490.363281 C 547.257812 490.363281 553.160156 496.265625 553.160156 503.527344 C 553.160156 510.785156 547.257812 516.6875 540 516.6875 L 489.972656 516.6875 C 482.710938 516.6875 476.808594 510.785156 476.808594 503.527344 C 476.808594 499.167969 478.964844 495.28125 482.242188 492.894531 L 534.097656 452.515625 C 537.984375 449.46875 542.152344 446.097656 546.179688 443.101562 C 551.800781 438.554688 556.441406 432.796875 559.671875 426.285156 C 562.855469 419.773438 564.683594 412.324219 564.683594 404.410156 C 564.683594 390.683594 559.109375 378.269531 550.117188 369.277344 C 541.121094 360.285156 528.710938 354.710938 514.984375 354.710938 C 501.261719 354.710938 488.847656 360.285156 479.851562 369.277344 C 470.859375 378.269531 465.285156 390.683594 465.285156 404.410156 C 465.285156 413.917969 467.910156 422.769531 472.453125 430.21875 C 477.183594 437.996094 484.023438 444.410156 492.171875 448.582031 C 498.589844 451.90625 501.121094 459.824219 497.839844 466.238281 C 494.515625 472.65625 486.597656 475.1875 480.179688 471.90625 C 467.769531 465.492188 457.324219 455.746094 450.0625 443.851562 C 443.082031 432.328125 439.007812 418.835938 439.007812 404.410156 C 439.007812 383.425781 447.53125 364.453125 461.257812 350.679688 C 475.027344 336.957031 494 328.433594 514.984375 328.433594 C 535.96875 328.433594 554.941406 336.957031 568.710938 350.679688 C 582.4375 364.40625 590.960938 383.425781 590.960938 404.410156 C 590.960938 416.308594 588.152344 427.640625 583.1875 437.808594 C 578.222656 447.878906 571.148438 456.683594 562.527344 463.664062 C 558.265625 467.222656 552.925781 471.207031 548.523438 474.625 L 528.289062 490.363281 Z M 540 490.363281 " fill-opacity="1" fill-rule="evenodd"/></g><g transform="matrix(1, 0, 0, 1, 595, 506)"><g clip-path="url(#5dcc469ec0)"><g fill="#000000" fill-opacity="1"><g transform="translate(0.860375, 37.680718)"><g><path d="M 9.296875 -21.609375 L 9.296875 -14.59375 L 21.578125 -14.59375 L 21.578125 -9.671875 L 9.296875 -9.671875 L 9.296875 0 L 3.140625 0 L 3.140625 -26.546875 L 23.203125 -26.546875 L 23.203125 -21.609375 Z M 9.296875 -21.609375 "/></g></g></g><g fill="#000000" fill-opacity="1"><g transform="translate(43.213901, 37.680718)"><g><path d="M 16 0.453125 C 13.25 0.453125 10.765625 -0.140625 8.546875 -1.328125 C 6.335938 -2.515625 4.609375 -4.148438 3.359375 -6.234375 C 2.109375 -8.316406 1.484375 -10.660156 1.484375 -13.265625 C 1.484375 -15.867188 2.109375 -18.210938 3.359375 -20.296875 C 4.609375 -22.390625 6.335938 -24.03125 8.546875 -25.21875 C 10.765625 -26.40625 13.25 -27 16 -27 C 18.757812 -27 21.238281 -26.40625 23.4375 -25.21875 C 25.632812 -24.03125 27.363281 -22.390625 28.625 -20.296875 C 29.894531 -18.210938 30.53125 -15.867188 30.53125 -13.265625 C 30.53125 -10.660156 29.894531 -8.316406 28.625 -6.234375 C 27.363281 -4.148438 25.632812 -2.515625 23.4375 -1.328125 C 21.238281 -0.140625 18.757812 0.453125 16 0.453125 Z M 16 -4.78125 C 17.570312 -4.78125 18.988281 -5.140625 20.25 -5.859375 C 21.507812 -6.578125 22.5 -7.582031 23.21875 -8.875 C 23.945312 -10.164062 24.3125 -11.628906 24.3125 -13.265625 C 24.3125 -14.910156 23.945312 -16.378906 23.21875 -17.671875 C 22.5 -18.960938 21.507812 -19.96875 20.25 -20.6875 C 18.988281 -21.40625 17.570312 -21.765625 16 -21.765625 C 14.4375 -21.765625 13.019531 -21.40625 11.75 -20.6875 C 10.488281 -19.96875 9.5 -18.960938 8.78125 -17.671875 C 8.0625 -16.378906 7.703125 -14.910156 7.703125 -13.265625 C 7.703125 -11.628906 8.0625 -10.164062 8.78125 -8.875 C 9.5 -7.582031 10.488281 -6.578125 11.75 -5.859375 C 13.019531 -5.140625 14.4375 -4.78125 16 -4.78125 Z M 16 -4.78125 "/></g></g></g><g fill="#000000" fill-opacity="1"><g transform="translate(93.339503, 37.680718)"><g><path d="M 20.0625 0 L 14.9375 -7.390625 L 9.296875 -7.390625 L 9.296875 0 L 3.140625 0 L 3.140625 -26.546875 L 14.640625 -26.546875 C 16.992188 -26.546875 19.035156 -26.148438 20.765625 -25.359375 C 22.492188 -24.578125 23.828125 -23.46875 24.765625 -22.03125 C 25.703125 -20.59375 26.171875 -18.882812 26.171875 -16.90625 C 26.171875 -14.9375 25.695312 -13.238281 24.75 -11.8125 C 23.800781 -10.382812 22.453125 -9.289062 20.703125 -8.53125 L 26.65625 0 Z M 19.953125 -16.90625 C 19.953125 -18.40625 19.46875 -19.550781 18.5 -20.34375 C 17.539062 -21.144531 16.140625 -21.546875 14.296875 -21.546875 L 9.296875 -21.546875 L 9.296875 -12.28125 L 14.296875 -12.28125 C 16.140625 -12.28125 17.539062 -12.6875 18.5 -13.5 C 19.46875 -14.3125 19.953125 -15.445312 19.953125 -16.90625 Z M 19.953125 -16.90625 "/></g></g></g><g fill="#000000" fill-opacity="1"><g transform="translate(139.332632, 37.680718)"><g/></g></g><g fill="#000000" fill-opacity="1"><g transform="translate(168.189285, 37.680718)"><g><path d="M 23.703125 -4.9375 L 23.703125 0 L 3.140625 0 L 3.140625 -26.546875 L 23.203125 -26.546875 L 23.203125 -21.609375 L 9.25 -21.609375 L 9.25 -15.84375 L 21.578125 -15.84375 L 21.578125 -11.078125 L 9.25 -11.078125 L 9.25 -4.9375 Z M 23.703125 -4.9375 "/></g></g></g><g fill="#000000" fill-opacity="1"><g transform="translate(211.756012, 37.680718)"><g><path d="M 27.5 -26.546875 L 27.5 0 L 22.453125 0 L 9.21875 -16.109375 L 9.21875 0 L 3.140625 0 L 3.140625 -26.546875 L 8.234375 -26.546875 L 21.421875 -10.421875 L 21.421875 -26.546875 Z M 27.5 -26.546875 "/></g></g></g><g fill="#000000" fill-opacity="1"><g transform="translate(260.516754, 37.680718)"><g><path d="M 8.640625 -21.546875 L 0.15625 -21.546875 L 0.15625 -26.546875 L 23.28125 -26.546875 L 23.28125 -21.546875 L 14.796875 -21.546875 L 14.796875 0 L 8.640625 0 Z M 8.640625 -21.546875 "/></g></g></g><g fill="#000000" fill-opacity="1"><g transform="translate(302.074111, 37.680718)"><g><path d="M 15.84375 0.453125 C 13.144531 0.453125 10.703125 -0.132812 8.515625 -1.3125 C 6.328125 -2.488281 4.609375 -4.117188 3.359375 -6.203125 C 2.109375 -8.285156 1.484375 -10.640625 1.484375 -13.265625 C 1.484375 -15.898438 2.109375 -18.257812 3.359375 -20.34375 C 4.609375 -22.425781 6.328125 -24.054688 8.515625 -25.234375 C 10.703125 -26.410156 13.160156 -27 15.890625 -27 C 18.191406 -27 20.269531 -26.59375 22.125 -25.78125 C 23.988281 -24.976562 25.550781 -23.816406 26.8125 -22.296875 L 22.859375 -18.65625 C 21.066406 -20.726562 18.84375 -21.765625 16.1875 -21.765625 C 14.550781 -21.765625 13.085938 -21.40625 11.796875 -20.6875 C 10.503906 -19.96875 9.5 -18.960938 8.78125 -17.671875 C 8.0625 -16.378906 7.703125 -14.910156 7.703125 -13.265625 C 7.703125 -11.628906 8.0625 -10.164062 8.78125 -8.875 C 9.5 -7.582031 10.503906 -6.578125 11.796875 -5.859375 C 13.085938 -5.140625 14.550781 -4.78125 16.1875 -4.78125 C 18.84375 -4.78125 21.066406 -5.828125 22.859375 -7.921875 L 26.8125 -4.28125 C 25.550781 -2.738281 23.984375 -1.5625 22.109375 -0.75 C 20.234375 0.0507812 18.144531 0.453125 15.84375 0.453125 Z M 15.84375 0.453125 "/></g></g></g><g fill="#000000" fill-opacity="1"><g transform="translate(347.991434, 37.680718)"><g><path d="M 5 -7.046875 C 6.0625 -7.046875 6.929688 -6.710938 7.609375 -6.046875 C 8.296875 -5.378906 8.640625 -4.5 8.640625 -3.40625 C 8.640625 -2.90625 8.578125 -2.398438 8.453125 -1.890625 C 8.328125 -1.390625 8.050781 -0.632812 7.625 0.375 L 5.453125 5.84375 L 1.703125 5.84375 L 3.375 -0.1875 C 2.738281 -0.4375 2.238281 -0.847656 1.875 -1.421875 C 1.507812 -1.992188 1.328125 -2.65625 1.328125 -3.40625 C 1.328125 -4.5 1.671875 -5.378906 2.359375 -6.046875 C 3.054688 -6.710938 3.9375 -7.046875 5 -7.046875 Z M 5 -7.046875 "/></g></g></g><g fill="#000000" fill-opacity="1"><g transform="translate(376.051903, 37.680718)"><g/></g></g><g fill="#000000" fill-opacity="1"><g transform="translate(404.908556, 37.680718)"><g><path d="M 22.640625 -13.796875 C 24.160156 -13.316406 25.347656 -12.515625 26.203125 -11.390625 C 27.066406 -10.265625 27.5 -8.882812 27.5 -7.25 C 27.5 -4.914062 26.59375 -3.125 24.78125 -1.875 C 22.976562 -0.625 20.34375 0 16.875 0 L 3.140625 0 L 3.140625 -26.546875 L 16.109375 -26.546875 C 19.347656 -26.546875 21.832031 -25.925781 23.5625 -24.6875 C 25.300781 -23.445312 26.171875 -21.765625 26.171875 -19.640625 C 26.171875 -18.347656 25.859375 -17.195312 25.234375 -16.1875 C 24.617188 -15.175781 23.753906 -14.378906 22.640625 -13.796875 Z M 9.25 -21.921875 L 9.25 -15.65625 L 15.359375 -15.65625 C 16.878906 -15.65625 18.03125 -15.921875 18.8125 -16.453125 C 19.59375 -16.984375 19.984375 -17.769531 19.984375 -18.8125 C 19.984375 -19.84375 19.59375 -20.617188 18.8125 -21.140625 C 18.03125 -21.660156 16.878906 -21.921875 15.359375 -21.921875 Z M 16.421875 -4.625 C 18.035156 -4.625 19.253906 -4.890625 20.078125 -5.421875 C 20.898438 -5.953125 21.3125 -6.773438 21.3125 -7.890625 C 21.3125 -10.085938 19.679688 -11.1875 16.421875 -11.1875 L 9.25 -11.1875 L 9.25 -4.625 Z M 16.421875 -4.625 "/></g></g></g><g fill="#000000" fill-opacity="1"><g transform="translate(452.03908, 37.680718)"><g><path d="M 15.890625 -9.40625 L 15.890625 0 L 9.75 0 L 9.75 -9.484375 L -0.53125 -26.546875 L 5.984375 -26.546875 L 13.078125 -14.75 L 20.171875 -26.546875 L 26.203125 -26.546875 Z M 15.890625 -9.40625 "/></g></g></g><g fill="#000000" fill-opacity="1"><g transform="translate(495.795374, 37.680718)"><g/></g></g><g fill="#000000" fill-opacity="1"><g transform="translate(524.652028, 37.680718)"><g><path d="M 23.703125 -4.9375 L 23.703125 0 L 3.140625 0 L 3.140625 -26.546875 L 23.203125 -26.546875 L 23.203125 -21.609375 L 9.25 -21.609375 L 9.25 -15.84375 L 21.578125 -15.84375 L 21.578125 -11.078125 L 9.25 -11.078125 L 9.25 -4.9375 Z M 23.703125 -4.9375 "/></g></g></g><g fill="#000000" fill-opacity="1"><g transform="translate(568.218739, 37.680718)"><g><path d="M 27.5 -26.546875 L 27.5 0 L 22.453125 0 L 9.21875 -16.109375 L 9.21875 0 L 3.140625 0 L 3.140625 -26.546875 L 8.234375 -26.546875 L 21.421875 -10.421875 L 21.421875 -26.546875 Z M 27.5 -26.546875 "/></g></g></g><g fill="#000000" fill-opacity="1"><g transform="translate(616.979512, 37.680718)"><g><path d="M 8.640625 -21.546875 L 0.15625 -21.546875 L 0.15625 -26.546875 L 23.28125 -26.546875 L 23.28125 -21.546875 L 14.796875 -21.546875 L 14.796875 0 L 8.640625 0 Z M 8.640625 -21.546875 "/></g></g></g><g fill="#000000" fill-opacity="1"><g transform="translate(658.536838, 37.680718)"><g><path d="M 15.84375 0.453125 C 13.144531 0.453125 10.703125 -0.132812 8.515625 -1.3125 C 6.328125 -2.488281 4.609375 -4.117188 3.359375 -6.203125 C 2.109375 -8.285156 1.484375 -10.640625 1.484375 -13.265625 C 1.484375 -15.898438 2.109375 -18.257812 3.359375 -20.34375 C 4.609375 -22.425781 6.328125 -24.054688 8.515625 -25.234375 C 10.703125 -26.410156 13.160156 -27 15.890625 -27 C 18.191406 -27 20.269531 -26.59375 22.125 -25.78125 C 23.988281 -24.976562 25.550781 -23.816406 26.8125 -22.296875 L 22.859375 -18.65625 C 21.066406 -20.726562 18.84375 -21.765625 16.1875 -21.765625 C 14.550781 -21.765625 13.085938 -21.40625 11.796875 -20.6875 C 10.503906 -19.96875 9.5 -18.960938 8.78125 -17.671875 C 8.0625 -16.378906 7.703125 -14.910156 7.703125 -13.265625 C 7.703125 -11.628906 8.0625 -10.164062 8.78125 -8.875 C 9.5 -7.582031 10.503906 -6.578125 11.796875 -5.859375 C 13.085938 -5.140625 14.550781 -4.78125 16.1875 -4.78125 C 18.84375 -4.78125 21.066406 -5.828125 22.859375 -7.921875 L 26.8125 -4.28125 C 25.550781 -2.738281 23.984375 -1.5625 22.109375 -0.75 C 20.234375 0.0507812 18.144531 0.453125 15.84375 0.453125 Z M 15.84375 0.453125 "/></g></g></g><g fill="#000000" fill-opacity="1"><g transform="translate(704.45413, 37.680718)"><g><path d="M 4.96875 0.296875 C 3.925781 0.296875 3.050781 -0.0507812 2.34375 -0.75 C 1.644531 -1.457031 1.296875 -2.34375 1.296875 -3.40625 C 1.296875 -4.5 1.644531 -5.378906 2.34375 -6.046875 C 3.050781 -6.710938 3.925781 -7.046875 4.96875 -7.046875 C 6 -7.046875 6.867188 -6.710938 7.578125 -6.046875 C 8.285156 -5.378906 8.640625 -4.5 8.640625 -3.40625 C 8.640625 -2.34375 8.285156 -1.457031 7.578125 -0.75 C 6.867188 -0.0507812 6 0.296875 4.96875 0.296875 Z M 4.96875 0.296875 "/></g></g></g></g></g></g></g></svg>